<?xml version="1.0" encoding="utf-8"?>
<svg xmlns="http://www.w3.org/2000/svg" xmlns:xlink="http://www.w3.org/1999/xlink" width="600" height="400" viewBox="0 0 2400 1600">
<defs>
  <clipPath id="clip790">
    <rect x="0" y="0" width="2400" height="1600"/>
  </clipPath>
</defs>
<path clip-path="url(#clip790)" d="M0 1600 L2400 1600 L2400 0 L0 0  Z" fill="#ffffff" fill-rule="evenodd" fill-opacity="1"/>
<defs>
  <clipPath id="clip791">
    <rect x="480" y="0" width="1681" height="1600"/>
  </clipPath>
</defs>
<path clip-path="url(#clip790)" d="M257.69 1423.18 L2352.76 1423.18 L2352.76 47.2441 L257.69 47.2441  Z" fill="#ffffff" fill-rule="evenodd" fill-opacity="1"/>
<defs>
  <clipPath id="clip792">
    <rect x="257" y="47" width="2096" height="1377"/>
  </clipPath>
</defs>
<polyline clip-path="url(#clip792)" style="stroke:#000000; stroke-linecap:round; stroke-linejoin:round; stroke-width:2; stroke-opacity:0.1; fill:none" points="316.984,1423.18 316.984,47.2441 "/>
<polyline clip-path="url(#clip792)" style="stroke:#000000; stroke-linecap:round; stroke-linejoin:round; stroke-width:2; stroke-opacity:0.1; fill:none" points="811.104,1423.18 811.104,47.2441 "/>
<polyline clip-path="url(#clip792)" style="stroke:#000000; stroke-linecap:round; stroke-linejoin:round; stroke-width:2; stroke-opacity:0.1; fill:none" points="1305.22,1423.18 1305.22,47.2441 "/>
<polyline clip-path="url(#clip792)" style="stroke:#000000; stroke-linecap:round; stroke-linejoin:round; stroke-width:2; stroke-opacity:0.1; fill:none" points="1799.34,1423.18 1799.34,47.2441 "/>
<polyline clip-path="url(#clip792)" style="stroke:#000000; stroke-linecap:round; stroke-linejoin:round; stroke-width:2; stroke-opacity:0.1; fill:none" points="2293.46,1423.18 2293.46,47.2441 "/>
<polyline clip-path="url(#clip792)" style="stroke:#000000; stroke-linecap:round; stroke-linejoin:round; stroke-width:2; stroke-opacity:0.1; fill:none" points="257.69,1273.15 2352.76,1273.15 "/>
<polyline clip-path="url(#clip792)" style="stroke:#000000; stroke-linecap:round; stroke-linejoin:round; stroke-width:2; stroke-opacity:0.1; fill:none" points="257.69,1088.11 2352.76,1088.11 "/>
<polyline clip-path="url(#clip792)" style="stroke:#000000; stroke-linecap:round; stroke-linejoin:round; stroke-width:2; stroke-opacity:0.1; fill:none" points="257.69,903.068 2352.76,903.068 "/>
<polyline clip-path="url(#clip792)" style="stroke:#000000; stroke-linecap:round; stroke-linejoin:round; stroke-width:2; stroke-opacity:0.1; fill:none" points="257.69,718.026 2352.76,718.026 "/>
<polyline clip-path="url(#clip792)" style="stroke:#000000; stroke-linecap:round; stroke-linejoin:round; stroke-width:2; stroke-opacity:0.1; fill:none" points="257.69,532.983 2352.76,532.983 "/>
<polyline clip-path="url(#clip792)" style="stroke:#000000; stroke-linecap:round; stroke-linejoin:round; stroke-width:2; stroke-opacity:0.1; fill:none" points="257.69,347.94 2352.76,347.94 "/>
<polyline clip-path="url(#clip792)" style="stroke:#000000; stroke-linecap:round; stroke-linejoin:round; stroke-width:2; stroke-opacity:0.1; fill:none" points="257.69,162.898 2352.76,162.898 "/>
<polyline clip-path="url(#clip790)" style="stroke:#000000; stroke-linecap:round; stroke-linejoin:round; stroke-width:4; stroke-opacity:1; fill:none" points="257.69,1423.18 2352.76,1423.18 "/>
<polyline clip-path="url(#clip790)" style="stroke:#000000; stroke-linecap:round; stroke-linejoin:round; stroke-width:4; stroke-opacity:1; fill:none" points="316.984,1423.18 316.984,1404.28 "/>
<polyline clip-path="url(#clip790)" style="stroke:#000000; stroke-linecap:round; stroke-linejoin:round; stroke-width:4; stroke-opacity:1; fill:none" points="811.104,1423.18 811.104,1404.28 "/>
<polyline clip-path="url(#clip790)" style="stroke:#000000; stroke-linecap:round; stroke-linejoin:round; stroke-width:4; stroke-opacity:1; fill:none" points="1305.22,1423.18 1305.22,1404.28 "/>
<polyline clip-path="url(#clip790)" style="stroke:#000000; stroke-linecap:round; stroke-linejoin:round; stroke-width:4; stroke-opacity:1; fill:none" points="1799.34,1423.18 1799.34,1404.28 "/>
<polyline clip-path="url(#clip790)" style="stroke:#000000; stroke-linecap:round; stroke-linejoin:round; stroke-width:4; stroke-opacity:1; fill:none" points="2293.46,1423.18 2293.46,1404.28 "/>
<path clip-path="url(#clip790)" d="M294.369 1454.1 Q290.758 1454.1 288.929 1457.66 Q287.124 1461.2 287.124 1468.33 Q287.124 1475.44 288.929 1479.01 Q290.758 1482.55 294.369 1482.55 Q298.003 1482.55 299.809 1479.01 Q301.637 1475.44 301.637 1468.33 Q301.637 1461.2 299.809 1457.66 Q298.003 1454.1 294.369 1454.1 M294.369 1450.39 Q300.179 1450.39 303.235 1455 Q306.313 1459.58 306.313 1468.33 Q306.313 1477.06 303.235 1481.67 Q300.179 1486.25 294.369 1486.25 Q288.559 1486.25 285.48 1481.67 Q282.424 1477.06 282.424 1468.33 Q282.424 1459.58 285.48 1455 Q288.559 1450.39 294.369 1450.39 Z" fill="#000000" fill-rule="nonzero" fill-opacity="1" /><path clip-path="url(#clip790)" d="M314.531 1479.7 L319.415 1479.7 L319.415 1485.58 L314.531 1485.58 L314.531 1479.7 Z" fill="#000000" fill-rule="nonzero" fill-opacity="1" /><path clip-path="url(#clip790)" d="M339.6 1454.1 Q335.989 1454.1 334.16 1457.66 Q332.355 1461.2 332.355 1468.33 Q332.355 1475.44 334.16 1479.01 Q335.989 1482.55 339.6 1482.55 Q343.234 1482.55 345.04 1479.01 Q346.869 1475.44 346.869 1468.33 Q346.869 1461.2 345.04 1457.66 Q343.234 1454.1 339.6 1454.1 M339.6 1450.39 Q345.41 1450.39 348.466 1455 Q351.544 1459.58 351.544 1468.33 Q351.544 1477.06 348.466 1481.67 Q345.41 1486.25 339.6 1486.25 Q333.79 1486.25 330.711 1481.67 Q327.656 1477.06 327.656 1468.33 Q327.656 1459.58 330.711 1455 Q333.79 1450.39 339.6 1450.39 Z" fill="#000000" fill-rule="nonzero" fill-opacity="1" /><path clip-path="url(#clip790)" d="M782.84 1481.64 L799.159 1481.64 L799.159 1485.58 L777.215 1485.58 L777.215 1481.64 Q779.877 1478.89 784.46 1474.26 Q789.067 1469.61 790.247 1468.27 Q792.493 1465.74 793.372 1464.01 Q794.275 1462.25 794.275 1460.56 Q794.275 1457.8 792.331 1456.07 Q790.409 1454.33 787.308 1454.33 Q785.109 1454.33 782.655 1455.09 Q780.224 1455.86 777.447 1457.41 L777.447 1452.69 Q780.271 1451.55 782.724 1450.97 Q785.178 1450.39 787.215 1450.39 Q792.585 1450.39 795.78 1453.08 Q798.974 1455.77 798.974 1460.26 Q798.974 1462.39 798.164 1464.31 Q797.377 1466.2 795.27 1468.8 Q794.692 1469.47 791.59 1472.69 Q788.488 1475.88 782.84 1481.64 Z" fill="#000000" fill-rule="nonzero" fill-opacity="1" /><path clip-path="url(#clip790)" d="M808.974 1479.7 L813.858 1479.7 L813.858 1485.58 L808.974 1485.58 L808.974 1479.7 Z" fill="#000000" fill-rule="nonzero" fill-opacity="1" /><path clip-path="url(#clip790)" d="M824.09 1451.02 L842.446 1451.02 L842.446 1454.96 L828.372 1454.96 L828.372 1463.43 Q829.391 1463.08 830.409 1462.92 Q831.428 1462.73 832.446 1462.73 Q838.233 1462.73 841.613 1465.9 Q844.992 1469.08 844.992 1474.49 Q844.992 1480.07 841.52 1483.17 Q838.048 1486.25 831.729 1486.25 Q829.553 1486.25 827.284 1485.88 Q825.039 1485.51 822.631 1484.77 L822.631 1480.07 Q824.715 1481.2 826.937 1481.76 Q829.159 1482.32 831.636 1482.32 Q835.641 1482.32 837.979 1480.21 Q840.317 1478.1 840.317 1474.49 Q840.317 1470.88 837.979 1468.77 Q835.641 1466.67 831.636 1466.67 Q829.761 1466.67 827.886 1467.08 Q826.034 1467.5 824.09 1468.38 L824.09 1451.02 Z" fill="#000000" fill-rule="nonzero" fill-opacity="1" /><path clip-path="url(#clip790)" d="M1272.39 1451.02 L1290.74 1451.02 L1290.74 1454.96 L1276.67 1454.96 L1276.67 1463.43 Q1277.69 1463.08 1278.71 1462.92 Q1279.73 1462.73 1280.74 1462.73 Q1286.53 1462.73 1289.91 1465.9 Q1293.29 1469.08 1293.29 1474.49 Q1293.29 1480.07 1289.82 1483.17 Q1286.35 1486.25 1280.03 1486.25 Q1277.85 1486.25 1275.58 1485.88 Q1273.34 1485.51 1270.93 1484.77 L1270.93 1480.07 Q1273.01 1481.2 1275.23 1481.76 Q1277.46 1482.32 1279.93 1482.32 Q1283.94 1482.32 1286.28 1480.21 Q1288.61 1478.1 1288.61 1474.49 Q1288.61 1470.88 1286.28 1468.77 Q1283.94 1466.67 1279.93 1466.67 Q1278.06 1466.67 1276.18 1467.08 Q1274.33 1467.5 1272.39 1468.38 L1272.39 1451.02 Z" fill="#000000" fill-rule="nonzero" fill-opacity="1" /><path clip-path="url(#clip790)" d="M1302.5 1479.7 L1307.39 1479.7 L1307.39 1485.58 L1302.5 1485.58 L1302.5 1479.7 Z" fill="#000000" fill-rule="nonzero" fill-opacity="1" /><path clip-path="url(#clip790)" d="M1327.57 1454.1 Q1323.96 1454.1 1322.13 1457.66 Q1320.33 1461.2 1320.33 1468.33 Q1320.33 1475.44 1322.13 1479.01 Q1323.96 1482.55 1327.57 1482.55 Q1331.21 1482.55 1333.01 1479.01 Q1334.84 1475.44 1334.84 1468.33 Q1334.84 1461.2 1333.01 1457.66 Q1331.21 1454.1 1327.57 1454.1 M1327.57 1450.39 Q1333.38 1450.39 1336.44 1455 Q1339.52 1459.58 1339.52 1468.33 Q1339.52 1477.06 1336.44 1481.67 Q1333.38 1486.25 1327.57 1486.25 Q1321.76 1486.25 1318.68 1481.67 Q1315.63 1477.06 1315.63 1468.33 Q1315.63 1459.58 1318.68 1455 Q1321.76 1450.39 1327.57 1450.39 Z" fill="#000000" fill-rule="nonzero" fill-opacity="1" /><path clip-path="url(#clip790)" d="M1765.66 1451.02 L1787.88 1451.02 L1787.88 1453.01 L1775.34 1485.58 L1770.45 1485.58 L1782.26 1454.96 L1765.66 1454.96 L1765.66 1451.02 Z" fill="#000000" fill-rule="nonzero" fill-opacity="1" /><path clip-path="url(#clip790)" d="M1797 1479.7 L1801.89 1479.7 L1801.89 1485.58 L1797 1485.58 L1797 1479.7 Z" fill="#000000" fill-rule="nonzero" fill-opacity="1" /><path clip-path="url(#clip790)" d="M1812.12 1451.02 L1830.48 1451.02 L1830.48 1454.96 L1816.4 1454.96 L1816.4 1463.43 Q1817.42 1463.08 1818.44 1462.92 Q1819.46 1462.73 1820.48 1462.73 Q1826.26 1462.73 1829.64 1465.9 Q1833.02 1469.08 1833.02 1474.49 Q1833.02 1480.07 1829.55 1483.17 Q1826.08 1486.25 1819.76 1486.25 Q1817.58 1486.25 1815.31 1485.88 Q1813.07 1485.51 1810.66 1484.77 L1810.66 1480.07 Q1812.75 1481.2 1814.97 1481.76 Q1817.19 1482.32 1819.67 1482.32 Q1823.67 1482.32 1826.01 1480.21 Q1828.35 1478.1 1828.35 1474.49 Q1828.35 1470.88 1826.01 1468.77 Q1823.67 1466.67 1819.67 1466.67 Q1817.79 1466.67 1815.92 1467.08 Q1814.06 1467.5 1812.12 1468.38 L1812.12 1451.02 Z" fill="#000000" fill-rule="nonzero" fill-opacity="1" /><path clip-path="url(#clip790)" d="M2245.53 1481.64 L2253.17 1481.64 L2253.17 1455.28 L2244.86 1456.95 L2244.86 1452.69 L2253.13 1451.02 L2257.8 1451.02 L2257.8 1481.64 L2265.44 1481.64 L2265.44 1485.58 L2245.53 1485.58 L2245.53 1481.64 Z" fill="#000000" fill-rule="nonzero" fill-opacity="1" /><path clip-path="url(#clip790)" d="M2284.89 1454.1 Q2281.27 1454.1 2279.45 1457.66 Q2277.64 1461.2 2277.64 1468.33 Q2277.64 1475.44 2279.45 1479.01 Q2281.27 1482.55 2284.89 1482.55 Q2288.52 1482.55 2290.33 1479.01 Q2292.15 1475.44 2292.15 1468.33 Q2292.15 1461.2 2290.33 1457.66 Q2288.52 1454.1 2284.89 1454.1 M2284.89 1450.39 Q2290.7 1450.39 2293.75 1455 Q2296.83 1459.58 2296.83 1468.33 Q2296.83 1477.06 2293.75 1481.67 Q2290.7 1486.25 2284.89 1486.25 Q2279.08 1486.25 2276 1481.67 Q2272.94 1477.06 2272.94 1468.33 Q2272.94 1459.58 2276 1455 Q2279.08 1450.39 2284.89 1450.39 Z" fill="#000000" fill-rule="nonzero" fill-opacity="1" /><path clip-path="url(#clip790)" d="M2305.05 1479.7 L2309.93 1479.7 L2309.93 1485.58 L2305.05 1485.58 L2305.05 1479.7 Z" fill="#000000" fill-rule="nonzero" fill-opacity="1" /><path clip-path="url(#clip790)" d="M2330.12 1454.1 Q2326.51 1454.1 2324.68 1457.66 Q2322.87 1461.2 2322.87 1468.33 Q2322.87 1475.44 2324.68 1479.01 Q2326.51 1482.55 2330.12 1482.55 Q2333.75 1482.55 2335.56 1479.01 Q2337.38 1475.44 2337.38 1468.33 Q2337.38 1461.2 2335.56 1457.66 Q2333.75 1454.1 2330.12 1454.1 M2330.12 1450.39 Q2335.93 1450.39 2338.98 1455 Q2342.06 1459.58 2342.06 1468.33 Q2342.06 1477.06 2338.98 1481.67 Q2335.93 1486.25 2330.12 1486.25 Q2324.31 1486.25 2321.23 1481.67 Q2318.17 1477.06 2318.17 1468.33 Q2318.17 1459.58 2321.23 1455 Q2324.31 1450.39 2330.12 1450.39 Z" fill="#000000" fill-rule="nonzero" fill-opacity="1" /><path clip-path="url(#clip790)" d="M1304.28 1522.27 L1304.28 1532.4 L1316.35 1532.4 L1316.35 1536.95 L1304.28 1536.95 L1304.28 1556.3 Q1304.28 1560.66 1305.46 1561.9 Q1306.67 1563.14 1310.33 1563.14 L1316.35 1563.14 L1316.35 1568.04 L1310.33 1568.04 Q1303.55 1568.04 1300.97 1565.53 Q1298.4 1562.98 1298.4 1556.3 L1298.4 1536.95 L1294.1 1536.95 L1294.1 1532.4 L1298.4 1532.4 L1298.4 1522.27 L1304.28 1522.27 Z" fill="#000000" fill-rule="nonzero" fill-opacity="1" /><polyline clip-path="url(#clip790)" style="stroke:#000000; stroke-linecap:round; stroke-linejoin:round; stroke-width:4; stroke-opacity:1; fill:none" points="257.69,1423.18 257.69,47.2441 "/>
<polyline clip-path="url(#clip790)" style="stroke:#000000; stroke-linecap:round; stroke-linejoin:round; stroke-width:4; stroke-opacity:1; fill:none" points="257.69,1273.15 276.588,1273.15 "/>
<polyline clip-path="url(#clip790)" style="stroke:#000000; stroke-linecap:round; stroke-linejoin:round; stroke-width:4; stroke-opacity:1; fill:none" points="257.69,1088.11 276.588,1088.11 "/>
<polyline clip-path="url(#clip790)" style="stroke:#000000; stroke-linecap:round; stroke-linejoin:round; stroke-width:4; stroke-opacity:1; fill:none" points="257.69,903.068 276.588,903.068 "/>
<polyline clip-path="url(#clip790)" style="stroke:#000000; stroke-linecap:round; stroke-linejoin:round; stroke-width:4; stroke-opacity:1; fill:none" points="257.69,718.026 276.588,718.026 "/>
<polyline clip-path="url(#clip790)" style="stroke:#000000; stroke-linecap:round; stroke-linejoin:round; stroke-width:4; stroke-opacity:1; fill:none" points="257.69,532.983 276.588,532.983 "/>
<polyline clip-path="url(#clip790)" style="stroke:#000000; stroke-linecap:round; stroke-linejoin:round; stroke-width:4; stroke-opacity:1; fill:none" points="257.69,347.94 276.588,347.94 "/>
<polyline clip-path="url(#clip790)" style="stroke:#000000; stroke-linecap:round; stroke-linejoin:round; stroke-width:4; stroke-opacity:1; fill:none" points="257.69,162.898 276.588,162.898 "/>
<path clip-path="url(#clip790)" d="M114.26 1273.61 L143.936 1273.61 L143.936 1277.54 L114.26 1277.54 L114.26 1273.61 Z" fill="#000000" fill-rule="nonzero" fill-opacity="1" /><path clip-path="url(#clip790)" d="M164.028 1258.95 Q160.417 1258.95 158.589 1262.52 Q156.783 1266.06 156.783 1273.19 Q156.783 1280.29 158.589 1283.86 Q160.417 1287.4 164.028 1287.4 Q167.663 1287.4 169.468 1283.86 Q171.297 1280.29 171.297 1273.19 Q171.297 1266.06 169.468 1262.52 Q167.663 1258.95 164.028 1258.95 M164.028 1255.25 Q169.839 1255.25 172.894 1259.86 Q175.973 1264.44 175.973 1273.19 Q175.973 1281.92 172.894 1286.52 Q169.839 1291.1 164.028 1291.1 Q158.218 1291.1 155.14 1286.52 Q152.084 1281.92 152.084 1273.19 Q152.084 1264.44 155.14 1259.86 Q158.218 1255.25 164.028 1255.25 Z" fill="#000000" fill-rule="nonzero" fill-opacity="1" /><path clip-path="url(#clip790)" d="M184.19 1284.55 L189.075 1284.55 L189.075 1290.43 L184.19 1290.43 L184.19 1284.55 Z" fill="#000000" fill-rule="nonzero" fill-opacity="1" /><path clip-path="url(#clip790)" d="M212.107 1259.95 L200.301 1278.4 L212.107 1278.4 L212.107 1259.95 M210.88 1255.87 L216.76 1255.87 L216.76 1278.4 L221.69 1278.4 L221.69 1282.29 L216.76 1282.29 L216.76 1290.43 L212.107 1290.43 L212.107 1282.29 L196.505 1282.29 L196.505 1277.77 L210.88 1255.87 Z" fill="#000000" fill-rule="nonzero" fill-opacity="1" /><path clip-path="url(#clip790)" d="M116.343 1088.56 L146.019 1088.56 L146.019 1092.5 L116.343 1092.5 L116.343 1088.56 Z" fill="#000000" fill-rule="nonzero" fill-opacity="1" /><path clip-path="url(#clip790)" d="M166.112 1073.91 Q162.501 1073.91 160.672 1077.47 Q158.866 1081.02 158.866 1088.15 Q158.866 1095.25 160.672 1098.82 Q162.501 1102.36 166.112 1102.36 Q169.746 1102.36 171.552 1098.82 Q173.38 1095.25 173.38 1088.15 Q173.38 1081.02 171.552 1077.47 Q169.746 1073.91 166.112 1073.91 M166.112 1070.21 Q171.922 1070.21 174.977 1074.81 Q178.056 1079.4 178.056 1088.15 Q178.056 1096.87 174.977 1101.48 Q171.922 1106.06 166.112 1106.06 Q160.302 1106.06 157.223 1101.48 Q154.167 1096.87 154.167 1088.15 Q154.167 1079.4 157.223 1074.81 Q160.302 1070.21 166.112 1070.21 Z" fill="#000000" fill-rule="nonzero" fill-opacity="1" /><path clip-path="url(#clip790)" d="M186.274 1099.51 L191.158 1099.51 L191.158 1105.39 L186.274 1105.39 L186.274 1099.51 Z" fill="#000000" fill-rule="nonzero" fill-opacity="1" /><path clip-path="url(#clip790)" d="M205.371 1101.46 L221.69 1101.46 L221.69 1105.39 L199.746 1105.39 L199.746 1101.46 Q202.408 1098.7 206.991 1094.07 Q211.598 1089.42 212.778 1088.08 Q215.024 1085.55 215.903 1083.82 Q216.806 1082.06 216.806 1080.37 Q216.806 1077.61 214.861 1075.88 Q212.94 1074.14 209.838 1074.14 Q207.639 1074.14 205.186 1074.91 Q202.755 1075.67 199.977 1077.22 L199.977 1072.5 Q202.801 1071.36 205.255 1070.78 Q207.709 1070.21 209.746 1070.21 Q215.116 1070.21 218.311 1072.89 Q221.505 1075.58 221.505 1080.07 Q221.505 1082.2 220.695 1084.12 Q219.908 1086.02 217.801 1088.61 Q217.223 1089.28 214.121 1092.5 Q211.019 1095.69 205.371 1101.46 Z" fill="#000000" fill-rule="nonzero" fill-opacity="1" /><path clip-path="url(#clip790)" d="M164.515 888.867 Q160.903 888.867 159.075 892.432 Q157.269 895.973 157.269 903.103 Q157.269 910.209 159.075 913.774 Q160.903 917.316 164.515 917.316 Q168.149 917.316 169.954 913.774 Q171.783 910.209 171.783 903.103 Q171.783 895.973 169.954 892.432 Q168.149 888.867 164.515 888.867 M164.515 885.163 Q170.325 885.163 173.38 889.77 Q176.459 894.353 176.459 903.103 Q176.459 911.83 173.38 916.436 Q170.325 921.02 164.515 921.02 Q158.704 921.02 155.626 916.436 Q152.57 911.83 152.57 903.103 Q152.57 894.353 155.626 889.77 Q158.704 885.163 164.515 885.163 Z" fill="#000000" fill-rule="nonzero" fill-opacity="1" /><path clip-path="url(#clip790)" d="M184.676 914.469 L189.561 914.469 L189.561 920.348 L184.676 920.348 L184.676 914.469 Z" fill="#000000" fill-rule="nonzero" fill-opacity="1" /><path clip-path="url(#clip790)" d="M209.746 888.867 Q206.135 888.867 204.306 892.432 Q202.5 895.973 202.5 903.103 Q202.5 910.209 204.306 913.774 Q206.135 917.316 209.746 917.316 Q213.38 917.316 215.186 913.774 Q217.014 910.209 217.014 903.103 Q217.014 895.973 215.186 892.432 Q213.38 888.867 209.746 888.867 M209.746 885.163 Q215.556 885.163 218.611 889.77 Q221.69 894.353 221.69 903.103 Q221.69 911.83 218.611 916.436 Q215.556 921.02 209.746 921.02 Q203.936 921.02 200.857 916.436 Q197.801 911.83 197.801 903.103 Q197.801 894.353 200.857 889.77 Q203.936 885.163 209.746 885.163 Z" fill="#000000" fill-rule="nonzero" fill-opacity="1" /><path clip-path="url(#clip790)" d="M166.112 703.824 Q162.501 703.824 160.672 707.389 Q158.866 710.931 158.866 718.06 Q158.866 725.167 160.672 728.732 Q162.501 732.273 166.112 732.273 Q169.746 732.273 171.552 728.732 Q173.38 725.167 173.38 718.06 Q173.38 710.931 171.552 707.389 Q169.746 703.824 166.112 703.824 M166.112 700.121 Q171.922 700.121 174.977 704.727 Q178.056 709.31 178.056 718.06 Q178.056 726.787 174.977 731.394 Q171.922 735.977 166.112 735.977 Q160.302 735.977 157.223 731.394 Q154.167 726.787 154.167 718.06 Q154.167 709.31 157.223 704.727 Q160.302 700.121 166.112 700.121 Z" fill="#000000" fill-rule="nonzero" fill-opacity="1" /><path clip-path="url(#clip790)" d="M186.274 729.426 L191.158 729.426 L191.158 735.306 L186.274 735.306 L186.274 729.426 Z" fill="#000000" fill-rule="nonzero" fill-opacity="1" /><path clip-path="url(#clip790)" d="M205.371 731.37 L221.69 731.37 L221.69 735.306 L199.746 735.306 L199.746 731.37 Q202.408 728.616 206.991 723.986 Q211.598 719.333 212.778 717.991 Q215.024 715.468 215.903 713.732 Q216.806 711.972 216.806 710.283 Q216.806 707.528 214.861 705.792 Q212.94 704.056 209.838 704.056 Q207.639 704.056 205.186 704.82 Q202.755 705.584 199.977 707.134 L199.977 702.412 Q202.801 701.278 205.255 700.699 Q207.709 700.121 209.746 700.121 Q215.116 700.121 218.311 702.806 Q221.505 705.491 221.505 709.982 Q221.505 712.111 220.695 714.033 Q219.908 715.931 217.801 718.523 Q217.223 719.195 214.121 722.412 Q211.019 725.607 205.371 731.37 Z" fill="#000000" fill-rule="nonzero" fill-opacity="1" /><path clip-path="url(#clip790)" d="M164.028 518.782 Q160.417 518.782 158.589 522.346 Q156.783 525.888 156.783 533.018 Q156.783 540.124 158.589 543.689 Q160.417 547.231 164.028 547.231 Q167.663 547.231 169.468 543.689 Q171.297 540.124 171.297 533.018 Q171.297 525.888 169.468 522.346 Q167.663 518.782 164.028 518.782 M164.028 515.078 Q169.839 515.078 172.894 519.684 Q175.973 524.268 175.973 533.018 Q175.973 541.744 172.894 546.351 Q169.839 550.934 164.028 550.934 Q158.218 550.934 155.14 546.351 Q152.084 541.744 152.084 533.018 Q152.084 524.268 155.14 519.684 Q158.218 515.078 164.028 515.078 Z" fill="#000000" fill-rule="nonzero" fill-opacity="1" /><path clip-path="url(#clip790)" d="M184.19 544.383 L189.075 544.383 L189.075 550.263 L184.19 550.263 L184.19 544.383 Z" fill="#000000" fill-rule="nonzero" fill-opacity="1" /><path clip-path="url(#clip790)" d="M212.107 519.777 L200.301 538.226 L212.107 538.226 L212.107 519.777 M210.88 515.703 L216.76 515.703 L216.76 538.226 L221.69 538.226 L221.69 542.115 L216.76 542.115 L216.76 550.263 L212.107 550.263 L212.107 542.115 L196.505 542.115 L196.505 537.601 L210.88 515.703 Z" fill="#000000" fill-rule="nonzero" fill-opacity="1" /><path clip-path="url(#clip790)" d="M164.352 333.739 Q160.741 333.739 158.913 337.304 Q157.107 340.845 157.107 347.975 Q157.107 355.081 158.913 358.646 Q160.741 362.188 164.352 362.188 Q167.987 362.188 169.792 358.646 Q171.621 355.081 171.621 347.975 Q171.621 340.845 169.792 337.304 Q167.987 333.739 164.352 333.739 M164.352 330.035 Q170.163 330.035 173.218 334.642 Q176.297 339.225 176.297 347.975 Q176.297 356.702 173.218 361.308 Q170.163 365.892 164.352 365.892 Q158.542 365.892 155.464 361.308 Q152.408 356.702 152.408 347.975 Q152.408 339.225 155.464 334.642 Q158.542 330.035 164.352 330.035 Z" fill="#000000" fill-rule="nonzero" fill-opacity="1" /><path clip-path="url(#clip790)" d="M184.514 359.341 L189.399 359.341 L189.399 365.22 L184.514 365.22 L184.514 359.341 Z" fill="#000000" fill-rule="nonzero" fill-opacity="1" /><path clip-path="url(#clip790)" d="M210.162 346.077 Q207.014 346.077 205.162 348.23 Q203.334 350.382 203.334 354.132 Q203.334 357.859 205.162 360.035 Q207.014 362.188 210.162 362.188 Q213.311 362.188 215.139 360.035 Q216.991 357.859 216.991 354.132 Q216.991 350.382 215.139 348.23 Q213.311 346.077 210.162 346.077 M219.445 331.424 L219.445 335.683 Q217.686 334.85 215.88 334.41 Q214.098 333.97 212.338 333.97 Q207.709 333.97 205.255 337.095 Q202.824 340.22 202.477 346.54 Q203.843 344.526 205.903 343.461 Q207.963 342.373 210.44 342.373 Q215.649 342.373 218.658 345.544 Q221.69 348.693 221.69 354.132 Q221.69 359.456 218.542 362.674 Q215.394 365.892 210.162 365.892 Q204.167 365.892 200.996 361.308 Q197.825 356.702 197.825 347.975 Q197.825 339.781 201.713 334.92 Q205.602 330.035 212.153 330.035 Q213.912 330.035 215.695 330.383 Q217.5 330.73 219.445 331.424 Z" fill="#000000" fill-rule="nonzero" fill-opacity="1" /><path clip-path="url(#clip790)" d="M164.607 148.696 Q160.996 148.696 159.167 152.261 Q157.362 155.803 157.362 162.932 Q157.362 170.039 159.167 173.604 Q160.996 177.145 164.607 177.145 Q168.241 177.145 170.047 173.604 Q171.876 170.039 171.876 162.932 Q171.876 155.803 170.047 152.261 Q168.241 148.696 164.607 148.696 M164.607 144.993 Q170.417 144.993 173.473 149.599 Q176.551 154.182 176.551 162.932 Q176.551 171.659 173.473 176.266 Q170.417 180.849 164.607 180.849 Q158.797 180.849 155.718 176.266 Q152.663 171.659 152.663 162.932 Q152.663 154.182 155.718 149.599 Q158.797 144.993 164.607 144.993 Z" fill="#000000" fill-rule="nonzero" fill-opacity="1" /><path clip-path="url(#clip790)" d="M184.769 174.298 L189.653 174.298 L189.653 180.178 L184.769 180.178 L184.769 174.298 Z" fill="#000000" fill-rule="nonzero" fill-opacity="1" /><path clip-path="url(#clip790)" d="M209.838 163.766 Q206.505 163.766 204.584 165.548 Q202.686 167.33 202.686 170.455 Q202.686 173.58 204.584 175.363 Q206.505 177.145 209.838 177.145 Q213.172 177.145 215.093 175.363 Q217.014 173.557 217.014 170.455 Q217.014 167.33 215.093 165.548 Q213.195 163.766 209.838 163.766 M205.162 161.775 Q202.153 161.034 200.463 158.974 Q198.797 156.914 198.797 153.951 Q198.797 149.807 201.737 147.4 Q204.699 144.993 209.838 144.993 Q215 144.993 217.94 147.4 Q220.88 149.807 220.88 153.951 Q220.88 156.914 219.19 158.974 Q217.523 161.034 214.537 161.775 Q217.917 162.562 219.792 164.854 Q221.69 167.145 221.69 170.455 Q221.69 175.479 218.611 178.164 Q215.556 180.849 209.838 180.849 Q204.121 180.849 201.042 178.164 Q197.987 175.479 197.987 170.455 Q197.987 167.145 199.885 164.854 Q201.783 162.562 205.162 161.775 M203.449 154.391 Q203.449 157.076 205.116 158.58 Q206.806 160.085 209.838 160.085 Q212.848 160.085 214.537 158.58 Q216.25 157.076 216.25 154.391 Q216.25 151.706 214.537 150.201 Q212.848 148.696 209.838 148.696 Q206.806 148.696 205.116 150.201 Q203.449 151.706 203.449 154.391 Z" fill="#000000" fill-rule="nonzero" fill-opacity="1" /><path clip-path="url(#clip790)" d="M20.8447 948.702 Q20.8447 955.704 26.0645 959.842 Q31.2844 963.948 40.2919 963.948 Q49.2675 963.948 54.4874 959.842 Q59.7073 955.704 59.7073 948.702 Q59.7073 941.7 54.4874 937.626 Q49.2675 933.52 40.2919 933.52 Q31.2844 933.52 26.0645 937.626 Q20.8447 941.7 20.8447 948.702 M15.6248 948.702 Q15.6248 938.708 22.3406 932.724 Q29.0246 926.74 40.2919 926.74 Q51.5274 926.74 58.2432 932.724 Q64.9272 938.708 64.9272 948.702 Q64.9272 958.728 58.2432 964.743 Q51.5592 970.727 40.2919 970.727 Q29.0246 970.727 22.3406 964.743 Q15.6248 958.728 15.6248 948.702 Z" fill="#000000" fill-rule="nonzero" fill-opacity="1" /><path clip-path="url(#clip790)" d="M49.9359 917.542 L28.3562 917.542 L28.3562 911.685 L49.7131 911.685 Q54.7739 911.685 57.3202 909.712 Q59.8346 907.739 59.8346 903.792 Q59.8346 899.049 56.8109 896.312 Q53.7872 893.543 48.5673 893.543 L28.3562 893.543 L28.3562 887.687 L64.0042 887.687 L64.0042 893.543 L58.5296 893.543 Q61.7762 895.676 63.3676 898.508 Q64.9272 901.309 64.9272 905.033 Q64.9272 911.176 61.1078 914.359 Q57.2883 917.542 49.9359 917.542 M27.4968 902.805 L27.4968 902.805 Z" fill="#000000" fill-rule="nonzero" fill-opacity="1" /><path clip-path="url(#clip790)" d="M18.2347 869.831 L28.3562 869.831 L28.3562 857.768 L32.9077 857.768 L32.9077 869.831 L52.2594 869.831 Q56.6199 869.831 57.8613 868.653 Q59.1026 867.444 59.1026 863.783 L59.1026 857.768 L64.0042 857.768 L64.0042 863.783 Q64.0042 870.563 61.4897 873.141 Q58.9434 875.719 52.2594 875.719 L32.9077 875.719 L32.9077 880.016 L28.3562 880.016 L28.3562 875.719 L18.2347 875.719 L18.2347 869.831 Z" fill="#000000" fill-rule="nonzero" fill-opacity="1" /><path clip-path="url(#clip790)" d="M58.657 844.4 L77.5631 844.4 L77.5631 850.288 L28.3562 850.288 L28.3562 844.4 L33.7671 844.4 Q30.5842 842.554 29.0564 839.753 Q27.4968 836.92 27.4968 833.005 Q27.4968 826.512 32.6531 822.47 Q37.8093 818.396 46.212 818.396 Q54.6147 818.396 59.771 822.47 Q64.9272 826.512 64.9272 833.005 Q64.9272 836.92 63.3994 839.753 Q61.8398 842.554 58.657 844.4 M46.212 824.475 Q39.7508 824.475 36.0905 827.149 Q32.3984 829.79 32.3984 834.437 Q32.3984 839.084 36.0905 841.758 Q39.7508 844.4 46.212 844.4 Q52.6732 844.4 56.3653 841.758 Q60.0256 839.084 60.0256 834.437 Q60.0256 829.79 56.3653 827.149 Q52.6732 824.475 46.212 824.475 Z" fill="#000000" fill-rule="nonzero" fill-opacity="1" /><path clip-path="url(#clip790)" d="M49.9359 809.293 L28.3562 809.293 L28.3562 803.436 L49.7131 803.436 Q54.7739 803.436 57.3202 801.463 Q59.8346 799.49 59.8346 795.543 Q59.8346 790.801 56.8109 788.063 Q53.7872 785.294 48.5673 785.294 L28.3562 785.294 L28.3562 779.438 L64.0042 779.438 L64.0042 785.294 L58.5296 785.294 Q61.7762 787.427 63.3676 790.259 Q64.9272 793.06 64.9272 796.784 Q64.9272 802.927 61.1078 806.11 Q57.2883 809.293 49.9359 809.293 M27.4968 794.556 L27.4968 794.556 Z" fill="#000000" fill-rule="nonzero" fill-opacity="1" /><path clip-path="url(#clip790)" d="M18.2347 761.582 L28.3562 761.582 L28.3562 749.519 L32.9077 749.519 L32.9077 761.582 L52.2594 761.582 Q56.6199 761.582 57.8613 760.404 Q59.1026 759.195 59.1026 755.534 L59.1026 749.519 L64.0042 749.519 L64.0042 755.534 Q64.0042 762.314 61.4897 764.892 Q58.9434 767.47 52.2594 767.47 L32.9077 767.47 L32.9077 771.767 L28.3562 771.767 L28.3562 767.47 L18.2347 767.47 L18.2347 761.582 Z" fill="#000000" fill-rule="nonzero" fill-opacity="1" /><path clip-path="url(#clip790)" d="M21.7677 735.132 L39.6235 735.132 L39.6235 727.048 Q39.6235 722.56 37.3 720.109 Q34.9765 717.659 30.6797 717.659 Q26.4147 717.659 24.0912 720.109 Q21.7677 722.56 21.7677 727.048 L21.7677 735.132 M16.4842 741.562 L16.4842 727.048 Q16.4842 719.059 20.1126 714.985 Q23.7092 710.879 30.6797 710.879 Q37.7138 710.879 41.3104 714.985 Q44.907 719.059 44.907 727.048 L44.907 735.132 L64.0042 735.132 L64.0042 741.562 L16.4842 741.562 Z" fill="#000000" fill-rule="nonzero" fill-opacity="1" /><path clip-path="url(#clip790)" d="M32.4621 691.018 Q32.4621 695.729 36.1542 698.466 Q39.8145 701.203 46.212 701.203 Q52.6095 701.203 56.3017 698.498 Q59.9619 695.761 59.9619 691.018 Q59.9619 686.339 56.2698 683.602 Q52.5777 680.865 46.212 680.865 Q39.8781 680.865 36.186 683.602 Q32.4621 686.339 32.4621 691.018 M27.4968 691.018 Q27.4968 683.379 32.4621 679.019 Q37.4273 674.658 46.212 674.658 Q54.9649 674.658 59.9619 679.019 Q64.9272 683.379 64.9272 691.018 Q64.9272 698.689 59.9619 703.049 Q54.9649 707.378 46.212 707.378 Q37.4273 707.378 32.4621 703.049 Q27.4968 698.689 27.4968 691.018 Z" fill="#000000" fill-rule="nonzero" fill-opacity="1" /><path clip-path="url(#clip790)" d="M29.4065 642.225 L34.9447 642.225 Q33.6716 644.708 33.035 647.381 Q32.3984 650.055 32.3984 652.919 Q32.3984 657.28 33.7352 659.476 Q35.072 661.64 37.7456 661.64 Q39.7826 661.64 40.9603 660.081 Q42.1061 658.521 43.1565 653.81 L43.6021 651.805 Q44.9389 645.567 47.3897 642.957 Q49.8086 640.315 54.1691 640.315 Q59.1344 640.315 62.0308 644.262 Q64.9272 648.177 64.9272 655.052 Q64.9272 657.916 64.3543 661.036 Q63.8132 664.123 62.6992 667.56 L56.6518 667.56 Q58.3387 664.314 59.198 661.163 Q60.0256 658.012 60.0256 654.924 Q60.0256 650.787 58.6251 648.559 Q57.1929 646.331 54.6147 646.331 Q52.2276 646.331 50.9545 647.954 Q49.6813 649.545 48.5037 654.988 L48.0262 657.025 Q46.8804 662.468 44.5251 664.887 Q42.138 667.306 38.0002 667.306 Q32.9713 667.306 30.2341 663.741 Q27.4968 660.176 27.4968 653.62 Q27.4968 650.373 27.9743 647.508 Q28.4517 644.644 29.4065 642.225 Z" fill="#000000" fill-rule="nonzero" fill-opacity="1" /><path clip-path="url(#clip790)" d="M28.3562 630.989 L28.3562 625.133 L64.0042 625.133 L64.0042 630.989 L28.3562 630.989 M14.479 630.989 L14.479 625.133 L21.895 625.133 L21.895 630.989 L14.479 630.989 Z" fill="#000000" fill-rule="nonzero" fill-opacity="1" /><path clip-path="url(#clip790)" d="M18.2347 607.086 L28.3562 607.086 L28.3562 595.023 L32.9077 595.023 L32.9077 607.086 L52.2594 607.086 Q56.6199 607.086 57.8613 605.909 Q59.1026 604.699 59.1026 601.039 L59.1026 595.023 L64.0042 595.023 L64.0042 601.039 Q64.0042 607.818 61.4897 610.396 Q58.9434 612.974 52.2594 612.974 L32.9077 612.974 L32.9077 617.271 L28.3562 617.271 L28.3562 612.974 L18.2347 612.974 L18.2347 607.086 Z" fill="#000000" fill-rule="nonzero" fill-opacity="1" /><path clip-path="url(#clip790)" d="M28.3562 587.321 L28.3562 581.464 L64.0042 581.464 L64.0042 587.321 L28.3562 587.321 M14.479 587.321 L14.479 581.464 L21.895 581.464 L21.895 587.321 L14.479 587.321 Z" fill="#000000" fill-rule="nonzero" fill-opacity="1" /><path clip-path="url(#clip790)" d="M32.4621 555.397 Q32.4621 560.107 36.1542 562.845 Q39.8145 565.582 46.212 565.582 Q52.6095 565.582 56.3017 562.876 Q59.9619 560.139 59.9619 555.397 Q59.9619 550.718 56.2698 547.981 Q52.5777 545.243 46.212 545.243 Q39.8781 545.243 36.186 547.981 Q32.4621 550.718 32.4621 555.397 M27.4968 555.397 Q27.4968 547.758 32.4621 543.397 Q37.4273 539.037 46.212 539.037 Q54.9649 539.037 59.9619 543.397 Q64.9272 547.758 64.9272 555.397 Q64.9272 563.067 59.9619 567.428 Q54.9649 571.757 46.212 571.757 Q37.4273 571.757 32.4621 567.428 Q27.4968 563.067 27.4968 555.397 Z" fill="#000000" fill-rule="nonzero" fill-opacity="1" /><path clip-path="url(#clip790)" d="M42.4881 499.697 L64.0042 499.697 L64.0042 505.553 L42.679 505.553 Q37.6183 505.553 35.1038 507.527 Q32.5894 509.5 32.5894 513.447 Q32.5894 518.189 35.6131 520.926 Q38.6368 523.664 43.8567 523.664 L64.0042 523.664 L64.0042 529.552 L28.3562 529.552 L28.3562 523.664 L33.8944 523.664 Q30.6797 521.563 29.0883 518.73 Q27.4968 515.866 27.4968 512.142 Q27.4968 505.999 31.3163 502.848 Q35.1038 499.697 42.4881 499.697 Z" fill="#000000" fill-rule="nonzero" fill-opacity="1" /><polyline clip-path="url(#clip792)" style="stroke:#009af9; stroke-linecap:round; stroke-linejoin:round; stroke-width:4; stroke-opacity:1; fill:none" points="316.984,1197.08 336.749,1197.78 356.514,1199.87 376.279,1203.3 396.044,1208.02 415.808,1213.92 435.573,1220.88 455.338,1228.77 475.103,1237.43 494.867,1246.68 514.632,1256.35 534.397,1266.23 554.162,1276.13 573.926,1285.86 593.691,1295.21 613.456,1304 633.221,1312.05 652.986,1319.21 672.75,1325.32 692.515,1330.28 712.28,1333.97 732.045,1336.33 751.809,1337.3 771.574,1336.88 791.339,1335.06 811.104,1331.88 830.869,1327.41 850.633,1321.73 870.398,1314.97 890.163,1307.25 909.928,1298.73 929.692,1289.57 949.457,1279.97 969.222,1270.12 988.987,1260.21 1008.75,1250.43 1028.52,1240.99 1048.28,1232.08 1068.05,1223.87 1087.81,1216.52 1107.58,1210.19 1127.34,1205 1147.1,1201.06 1166.87,1198.43 1186.63,1197.18 1206.4,1197.34 1226.16,1198.88 1245.93,1201.8 1265.69,1206.02 1285.46,1211.47 1305.22,1218.03 1324.99,1225.58 1344.75,1233.96 1364.52,1243 1384.28,1252.53 1404.05,1262.35 1423.81,1272.26 1443.58,1282.08 1463.34,1291.6 1483.11,1300.63 1502.87,1308.99 1522.64,1316.52 1542.4,1323.06 1562.17,1328.48 1581.93,1332.68 1601.69,1335.57 1621.46,1337.09 1641.22,1337.21 1660.99,1335.93 1680.75,1333.28 1700.52,1329.31 1720.28,1324.09 1740.05,1317.74 1759.81,1310.38 1779.58,1302.15 1799.34,1293.22 1819.11,1283.78 1838.87,1274 1858.64,1264.08 1878.4,1254.23 1898.17,1244.64 1917.93,1235.5 1937.7,1226.99 1957.46,1219.29 1977.23,1212.54 1996.99,1206.89 2016.75,1202.45 2036.52,1199.3 2056.28,1197.51 2076.05,1197.11 2095.81,1198.11 2115.58,1200.5 2135.34,1204.22 2155.11,1209.2 2174.87,1215.34 2194.64,1222.52 2214.4,1230.59 2234.17,1239.39 2253.93,1248.75 2273.7,1258.48 2293.46,1268.38 "/>
<polyline clip-path="url(#clip792)" style="stroke:#e26f46; stroke-linecap:round; stroke-linejoin:round; stroke-width:4; stroke-opacity:1; fill:none" points="316.984,1194.17 336.749,1194.01 356.514,1193.54 376.279,1192.76 396.044,1191.7 415.808,1190.37 435.573,1188.8 455.338,1187.02 475.103,1185.06 494.867,1182.97 514.632,1180.79 534.397,1178.56 554.162,1176.32 573.926,1174.13 593.691,1172.02 613.456,1170.03 633.221,1168.21 652.986,1166.6 672.75,1165.22 692.515,1164.1 712.28,1163.27 732.045,1162.73 751.809,1162.51 771.574,1162.61 791.339,1163.02 811.104,1163.74 830.869,1164.75 850.633,1166.03 870.398,1167.56 890.163,1169.3 909.928,1171.22 929.692,1173.29 949.457,1175.46 969.222,1177.68 988.987,1179.92 1008.75,1182.13 1028.52,1184.26 1048.28,1186.27 1068.05,1188.12 1087.81,1189.78 1107.58,1191.21 1127.34,1192.38 1147.1,1193.27 1166.87,1193.86 1186.63,1194.15 1206.4,1194.11 1226.16,1193.76 1245.93,1193.1 1265.69,1192.15 1285.46,1190.92 1305.22,1189.44 1324.99,1187.74 1344.75,1185.84 1364.52,1183.8 1384.28,1181.65 1404.05,1179.44 1423.81,1177.2 1443.58,1174.98 1463.34,1172.83 1483.11,1170.79 1502.87,1168.9 1522.64,1167.21 1542.4,1165.73 1562.17,1164.5 1581.93,1163.56 1601.69,1162.91 1621.46,1162.56 1641.22,1162.53 1660.99,1162.82 1680.75,1163.42 1700.52,1164.32 1720.28,1165.5 1740.05,1166.93 1759.81,1168.59 1779.58,1170.45 1799.34,1172.46 1819.11,1174.6 1838.87,1176.81 1858.64,1179.04 1878.4,1181.27 1898.17,1183.43 1917.93,1185.5 1937.7,1187.42 1957.46,1189.16 1977.23,1190.68 1996.99,1191.95 2016.75,1192.96 2036.52,1193.67 2056.28,1194.07 2076.05,1194.16 2095.81,1193.94 2115.58,1193.4 2135.34,1192.56 2155.11,1191.43 2174.87,1190.05 2194.64,1188.43 2214.4,1186.61 2234.17,1184.62 2253.93,1182.51 2273.7,1180.31 2293.46,1178.07 "/>
<polyline clip-path="url(#clip792)" style="stroke:#3da44d; stroke-linecap:round; stroke-linejoin:round; stroke-width:4; stroke-opacity:1; fill:none" points="316.984,419.383 336.749,419.661 356.514,420.488 376.279,421.848 396.044,423.714 415.808,426.048 435.573,428.804 455.338,431.927 475.103,435.354 494.867,439.017 514.632,442.842 534.397,446.753 554.162,450.671 573.926,454.519 593.691,458.219 613.456,461.698 633.221,464.886 652.986,467.718 672.75,470.139 692.515,472.1 712.28,473.561 732.045,474.494 751.809,474.88 771.574,474.712 791.339,473.991 811.104,472.734 830.869,470.964 850.633,468.718 870.398,466.041 890.163,462.985 909.928,459.613 929.692,455.991 949.457,452.191 969.222,448.291 988.987,444.368 1008.75,440.5 1028.52,436.765 1048.28,433.237 1068.05,429.987 1087.81,427.081 1107.58,424.575 1127.34,422.521 1147.1,420.959 1166.87,419.92 1186.63,419.426 1206.4,419.486 1226.16,420.099 1245.93,421.253 1265.69,422.925 1285.46,425.081 1305.22,427.678 1324.99,430.664 1344.75,433.979 1364.52,437.558 1384.28,441.329 1404.05,445.215 1423.81,449.14 1443.58,453.025 1463.34,456.792 1483.11,460.366 1502.87,463.676 1522.64,466.655 1542.4,469.243 1562.17,471.389 1581.93,473.05 1601.69,474.193 1621.46,474.795 1641.22,474.844 1660.99,474.338 1680.75,473.289 1700.52,471.716 1720.28,469.652 1740.05,467.138 1759.81,464.224 1779.58,460.967 1799.34,457.435 1819.11,453.696 1838.87,449.826 1858.64,445.902 1878.4,442.004 1898.17,438.207 1917.93,434.59 1937.7,431.223 1957.46,428.174 1977.23,425.505 1996.99,423.269 2016.75,421.51 2036.52,420.263 2056.28,419.554 2076.05,419.396 2095.81,419.794 2115.58,420.738 2135.34,422.21 2155.11,424.181 2174.87,426.611 2194.64,429.451 2214.4,432.645 2234.17,436.129 2253.93,439.833 2273.7,443.684 2293.46,447.603 "/>
<polyline clip-path="url(#clip792)" style="stroke:#c271d2; stroke-linecap:round; stroke-linejoin:round; stroke-width:4; stroke-opacity:1; fill:none" points="316.984,495.39 336.749,494.689 356.514,492.599 376.279,489.163 396.044,484.448 415.808,478.55 435.573,471.586 455.338,463.696 475.103,455.037 494.867,445.782 514.632,436.117 534.397,426.235 554.162,416.334 573.926,406.611 593.691,397.261 613.456,388.471 633.221,380.417 652.986,373.26 672.75,367.143 692.515,362.188 712.28,358.495 732.045,356.138 751.809,355.162 771.574,355.589 791.339,357.409 811.104,360.587 830.869,365.057 850.633,370.732 870.398,377.498 890.163,385.219 909.928,393.741 929.692,402.893 949.457,412.492 969.222,422.347 988.987,432.261 1008.75,442.034 1028.52,451.472 1048.28,460.386 1068.05,468.597 1087.81,475.942 1107.58,482.273 1127.34,487.464 1147.1,491.41 1166.87,494.034 1186.63,495.283 1206.4,495.131 1226.16,493.581 1245.93,490.666 1265.69,486.442 1285.46,480.995 1305.22,474.433 1324.99,466.887 1344.75,458.51 1364.52,449.467 1384.28,439.94 1404.05,430.12 1423.81,420.202 1443.58,410.386 1463.34,400.867 1483.11,391.836 1502.87,383.474 1522.64,375.947 1542.4,369.407 1562.17,363.984 1581.93,359.786 1601.69,356.898 1621.46,355.378 1641.22,355.255 1660.99,356.532 1680.75,359.184 1700.52,363.157 1720.28,368.373 1740.05,374.726 1759.81,382.09 1779.58,390.317 1799.34,399.244 1819.11,408.691 1838.87,418.469 1858.64,428.383 1878.4,438.235 1898.17,447.827 1917.93,456.968 1937.7,465.475 1957.46,473.177 1977.23,479.922 1996.99,485.573 2016.75,490.018 2036.52,493.168 2056.28,494.96 2076.05,495.358 2095.81,494.354 2115.58,491.968 2135.34,488.248 2155.11,483.268 2174.87,477.128 2194.64,469.951 2214.4,461.88 2234.17,453.077 2253.93,443.718 2273.7,433.989 2293.46,424.086 "/>
<polyline clip-path="url(#clip792)" style="stroke:#ac8d18; stroke-linecap:round; stroke-linejoin:round; stroke-width:4; stroke-opacity:1; fill:none" points="316.984,1352.58 336.749,1352.74 356.514,1353.21 376.279,1353.99 396.044,1355.05 415.808,1356.38 435.573,1357.95 455.338,1359.74 475.103,1361.69 494.867,1363.78 514.632,1365.96 534.397,1368.19 554.162,1370.43 573.926,1372.62 593.691,1374.73 613.456,1376.72 633.221,1378.54 652.986,1380.15 672.75,1381.53 692.515,1382.65 712.28,1383.49 732.045,1384.02 751.809,1384.24 771.574,1384.14 791.339,1383.73 811.104,1383.01 830.869,1382 850.633,1380.72 870.398,1379.2 890.163,1377.45 909.928,1375.53 929.692,1373.46 949.457,1371.3 969.222,1369.07 988.987,1366.83 1008.75,1364.63 1028.52,1362.5 1048.28,1360.48 1068.05,1358.63 1087.81,1356.97 1107.58,1355.54 1127.34,1354.37 1147.1,1353.48 1166.87,1352.89 1186.63,1352.61 1206.4,1352.64 1226.16,1352.99 1245.93,1353.65 1265.69,1354.6 1285.46,1355.83 1305.22,1357.31 1324.99,1359.02 1344.75,1360.91 1364.52,1362.95 1384.28,1365.1 1404.05,1367.32 1423.81,1369.56 1443.58,1371.77 1463.34,1373.92 1483.11,1375.96 1502.87,1377.85 1522.64,1379.55 1542.4,1381.02 1562.17,1382.25 1581.93,1383.19 1601.69,1383.85 1621.46,1384.19 1641.22,1384.22 1660.99,1383.93 1680.75,1383.33 1700.52,1382.43 1720.28,1381.26 1740.05,1379.82 1759.81,1378.16 1779.58,1376.3 1799.34,1374.29 1819.11,1372.15 1838.87,1369.95 1858.64,1367.71 1878.4,1365.48 1898.17,1363.32 1917.93,1361.25 1937.7,1359.33 1957.46,1357.6 1977.23,1356.07 1996.99,1354.8 2016.75,1353.79 2036.52,1353.08 2056.28,1352.68 2076.05,1352.59 2095.81,1352.81 2115.58,1353.35 2135.34,1354.19 2155.11,1355.32 2174.87,1356.7 2194.64,1358.32 2214.4,1360.15 2234.17,1362.13 2253.93,1364.25 2273.7,1366.44 2293.46,1368.68 "/>
<polyline clip-path="url(#clip792)" style="stroke:#00a9ad; stroke-linecap:round; stroke-linejoin:round; stroke-width:4; stroke-opacity:1; fill:none" points="316.984,141.683 336.749,141.405 356.514,140.578 376.279,139.218 396.044,137.352 415.808,135.018 435.573,132.262 455.338,129.139 475.103,125.712 494.867,122.05 514.632,118.225 534.397,114.314 554.162,110.395 573.926,106.547 593.691,102.847 613.456,99.368 633.221,96.1805 652.986,93.348 672.75,90.9272 692.515,88.9663 712.28,87.5047 732.045,86.5716 751.809,86.1857 771.574,86.3546 791.339,87.075 811.104,88.3324 830.869,90.1018 850.633,92.3478 870.398,95.0253 890.163,98.0809 909.928,101.454 929.692,105.076 949.457,108.875 969.222,112.775 988.987,116.698 1008.75,120.566 1028.52,124.301 1048.28,127.829 1068.05,131.079 1087.81,133.986 1107.58,136.491 1127.34,138.546 1147.1,140.108 1166.87,141.146 1186.63,141.64 1206.4,141.58 1226.16,140.967 1245.93,139.813 1265.69,138.141 1285.46,135.985 1305.22,133.388 1324.99,130.402 1344.75,127.087 1364.52,123.508 1384.28,119.738 1404.05,115.851 1423.81,111.926 1443.58,108.041 1463.34,104.274 1483.11,100.7 1502.87,97.3903 1522.64,94.4116 1542.4,91.8232 1562.17,89.677 1581.93,88.0157 1601.69,86.8728 1621.46,86.2709 1641.22,86.2223 1660.99,86.7277 1680.75,87.7772 1700.52,89.3497 1720.28,91.4138 1740.05,93.9282 1759.81,96.8426 1779.58,100.099 1799.34,103.631 1819.11,107.37 1838.87,111.24 1858.64,115.164 1878.4,119.063 1898.17,122.859 1917.93,126.476 1937.7,129.843 1957.46,132.892 1977.23,135.561 1996.99,137.797 2016.75,139.557 2036.52,140.803 2056.28,141.512 2076.05,141.67 2095.81,141.272 2115.58,140.328 2135.34,138.856 2155.11,136.885 2174.87,134.455 2194.64,131.615 2214.4,128.421 2234.17,124.937 2253.93,121.233 2273.7,117.382 2293.46,113.463 "/>
</svg>
