<?xml version="1.0" encoding="utf-8"?>
<svg xmlns="http://www.w3.org/2000/svg" xmlns:xlink="http://www.w3.org/1999/xlink" width="600" height="400" viewBox="0 0 2400 1600">
<defs>
  <clipPath id="clip190">
    <rect x="0" y="0" width="2400" height="1600"/>
  </clipPath>
</defs>
<path clip-path="url(#clip190)" d="M0 1600 L2400 1600 L2400 0 L0 0  Z" fill="#ffffff" fill-rule="evenodd" fill-opacity="1"/>
<defs>
  <clipPath id="clip191">
    <rect x="480" y="0" width="1681" height="1600"/>
  </clipPath>
</defs>
<path clip-path="url(#clip190)" d="M210.746 1423.18 L2352.76 1423.18 L2352.76 47.2441 L210.746 47.2441  Z" fill="#ffffff" fill-rule="evenodd" fill-opacity="1"/>
<defs>
  <clipPath id="clip192">
    <rect x="210" y="47" width="2143" height="1377"/>
  </clipPath>
</defs>
<polyline clip-path="url(#clip192)" style="stroke:#000000; stroke-linecap:round; stroke-linejoin:round; stroke-width:2; stroke-opacity:0.1; fill:none" points="271.369,1423.18 271.369,47.2441 "/>
<polyline clip-path="url(#clip192)" style="stroke:#000000; stroke-linecap:round; stroke-linejoin:round; stroke-width:2; stroke-opacity:0.1; fill:none" points="776.56,1423.18 776.56,47.2441 "/>
<polyline clip-path="url(#clip192)" style="stroke:#000000; stroke-linecap:round; stroke-linejoin:round; stroke-width:2; stroke-opacity:0.1; fill:none" points="1281.75,1423.18 1281.75,47.2441 "/>
<polyline clip-path="url(#clip192)" style="stroke:#000000; stroke-linecap:round; stroke-linejoin:round; stroke-width:2; stroke-opacity:0.1; fill:none" points="1786.94,1423.18 1786.94,47.2441 "/>
<polyline clip-path="url(#clip192)" style="stroke:#000000; stroke-linecap:round; stroke-linejoin:round; stroke-width:2; stroke-opacity:0.1; fill:none" points="2292.13,1423.18 2292.13,47.2441 "/>
<polyline clip-path="url(#clip192)" style="stroke:#000000; stroke-linecap:round; stroke-linejoin:round; stroke-width:2; stroke-opacity:0.1; fill:none" points="210.746,1206.99 2352.76,1206.99 "/>
<polyline clip-path="url(#clip192)" style="stroke:#000000; stroke-linecap:round; stroke-linejoin:round; stroke-width:2; stroke-opacity:0.1; fill:none" points="210.746,985.653 2352.76,985.653 "/>
<polyline clip-path="url(#clip192)" style="stroke:#000000; stroke-linecap:round; stroke-linejoin:round; stroke-width:2; stroke-opacity:0.1; fill:none" points="210.746,764.313 2352.76,764.313 "/>
<polyline clip-path="url(#clip192)" style="stroke:#000000; stroke-linecap:round; stroke-linejoin:round; stroke-width:2; stroke-opacity:0.1; fill:none" points="210.746,542.973 2352.76,542.973 "/>
<polyline clip-path="url(#clip192)" style="stroke:#000000; stroke-linecap:round; stroke-linejoin:round; stroke-width:2; stroke-opacity:0.1; fill:none" points="210.746,321.633 2352.76,321.633 "/>
<polyline clip-path="url(#clip192)" style="stroke:#000000; stroke-linecap:round; stroke-linejoin:round; stroke-width:2; stroke-opacity:0.1; fill:none" points="210.746,100.293 2352.76,100.293 "/>
<polyline clip-path="url(#clip190)" style="stroke:#000000; stroke-linecap:round; stroke-linejoin:round; stroke-width:4; stroke-opacity:1; fill:none" points="210.746,1423.18 2352.76,1423.18 "/>
<polyline clip-path="url(#clip190)" style="stroke:#000000; stroke-linecap:round; stroke-linejoin:round; stroke-width:4; stroke-opacity:1; fill:none" points="271.369,1423.18 271.369,1404.28 "/>
<polyline clip-path="url(#clip190)" style="stroke:#000000; stroke-linecap:round; stroke-linejoin:round; stroke-width:4; stroke-opacity:1; fill:none" points="776.56,1423.18 776.56,1404.28 "/>
<polyline clip-path="url(#clip190)" style="stroke:#000000; stroke-linecap:round; stroke-linejoin:round; stroke-width:4; stroke-opacity:1; fill:none" points="1281.75,1423.18 1281.75,1404.28 "/>
<polyline clip-path="url(#clip190)" style="stroke:#000000; stroke-linecap:round; stroke-linejoin:round; stroke-width:4; stroke-opacity:1; fill:none" points="1786.94,1423.18 1786.94,1404.28 "/>
<polyline clip-path="url(#clip190)" style="stroke:#000000; stroke-linecap:round; stroke-linejoin:round; stroke-width:4; stroke-opacity:1; fill:none" points="2292.13,1423.18 2292.13,1404.28 "/>
<path clip-path="url(#clip190)" d="M248.753 1454.1 Q245.142 1454.1 243.313 1457.66 Q241.508 1461.2 241.508 1468.33 Q241.508 1475.44 243.313 1479.01 Q245.142 1482.55 248.753 1482.55 Q252.387 1482.55 254.193 1479.01 Q256.022 1475.44 256.022 1468.33 Q256.022 1461.2 254.193 1457.66 Q252.387 1454.1 248.753 1454.1 M248.753 1450.39 Q254.563 1450.39 257.619 1455 Q260.698 1459.58 260.698 1468.33 Q260.698 1477.06 257.619 1481.67 Q254.563 1486.25 248.753 1486.25 Q242.943 1486.25 239.864 1481.67 Q236.809 1477.06 236.809 1468.33 Q236.809 1459.58 239.864 1455 Q242.943 1450.39 248.753 1450.39 Z" fill="#000000" fill-rule="nonzero" fill-opacity="1" /><path clip-path="url(#clip190)" d="M268.915 1479.7 L273.799 1479.7 L273.799 1485.58 L268.915 1485.58 L268.915 1479.7 Z" fill="#000000" fill-rule="nonzero" fill-opacity="1" /><path clip-path="url(#clip190)" d="M293.984 1454.1 Q290.373 1454.1 288.545 1457.66 Q286.739 1461.2 286.739 1468.33 Q286.739 1475.44 288.545 1479.01 Q290.373 1482.55 293.984 1482.55 Q297.619 1482.55 299.424 1479.01 Q301.253 1475.44 301.253 1468.33 Q301.253 1461.2 299.424 1457.66 Q297.619 1454.1 293.984 1454.1 M293.984 1450.39 Q299.795 1450.39 302.85 1455 Q305.929 1459.58 305.929 1468.33 Q305.929 1477.06 302.85 1481.67 Q299.795 1486.25 293.984 1486.25 Q288.174 1486.25 285.096 1481.67 Q282.04 1477.06 282.04 1468.33 Q282.04 1459.58 285.096 1455 Q288.174 1450.39 293.984 1450.39 Z" fill="#000000" fill-rule="nonzero" fill-opacity="1" /><path clip-path="url(#clip190)" d="M748.296 1481.64 L764.616 1481.64 L764.616 1485.58 L742.671 1485.58 L742.671 1481.64 Q745.333 1478.89 749.917 1474.26 Q754.523 1469.61 755.704 1468.27 Q757.949 1465.74 758.829 1464.01 Q759.731 1462.25 759.731 1460.56 Q759.731 1457.8 757.787 1456.07 Q755.866 1454.33 752.764 1454.33 Q750.565 1454.33 748.111 1455.09 Q745.68 1455.86 742.903 1457.41 L742.903 1452.69 Q745.727 1451.55 748.18 1450.97 Q750.634 1450.39 752.671 1450.39 Q758.041 1450.39 761.236 1453.08 Q764.43 1455.77 764.43 1460.26 Q764.43 1462.39 763.62 1464.31 Q762.833 1466.2 760.727 1468.8 Q760.148 1469.47 757.046 1472.69 Q753.944 1475.88 748.296 1481.64 Z" fill="#000000" fill-rule="nonzero" fill-opacity="1" /><path clip-path="url(#clip190)" d="M774.43 1479.7 L779.315 1479.7 L779.315 1485.58 L774.43 1485.58 L774.43 1479.7 Z" fill="#000000" fill-rule="nonzero" fill-opacity="1" /><path clip-path="url(#clip190)" d="M789.546 1451.02 L807.902 1451.02 L807.902 1454.96 L793.828 1454.96 L793.828 1463.43 Q794.847 1463.08 795.865 1462.92 Q796.884 1462.73 797.902 1462.73 Q803.689 1462.73 807.069 1465.9 Q810.449 1469.08 810.449 1474.49 Q810.449 1480.07 806.976 1483.17 Q803.504 1486.25 797.185 1486.25 Q795.009 1486.25 792.74 1485.88 Q790.495 1485.51 788.088 1484.77 L788.088 1480.07 Q790.171 1481.2 792.393 1481.76 Q794.615 1482.32 797.092 1482.32 Q801.097 1482.32 803.435 1480.21 Q805.773 1478.1 805.773 1474.49 Q805.773 1470.88 803.435 1468.77 Q801.097 1466.67 797.092 1466.67 Q795.217 1466.67 793.342 1467.08 Q791.49 1467.5 789.546 1468.38 L789.546 1451.02 Z" fill="#000000" fill-rule="nonzero" fill-opacity="1" /><path clip-path="url(#clip190)" d="M1248.92 1451.02 L1267.27 1451.02 L1267.27 1454.96 L1253.2 1454.96 L1253.2 1463.43 Q1254.22 1463.08 1255.23 1462.92 Q1256.25 1462.73 1257.27 1462.73 Q1263.06 1462.73 1266.44 1465.9 Q1269.82 1469.08 1269.82 1474.49 Q1269.82 1480.07 1266.35 1483.17 Q1262.87 1486.25 1256.55 1486.25 Q1254.38 1486.25 1252.11 1485.88 Q1249.86 1485.51 1247.46 1484.77 L1247.46 1480.07 Q1249.54 1481.2 1251.76 1481.76 Q1253.98 1482.32 1256.46 1482.32 Q1260.47 1482.32 1262.8 1480.21 Q1265.14 1478.1 1265.14 1474.49 Q1265.14 1470.88 1262.8 1468.77 Q1260.47 1466.67 1256.46 1466.67 Q1254.59 1466.67 1252.71 1467.08 Q1250.86 1467.5 1248.92 1468.38 L1248.92 1451.02 Z" fill="#000000" fill-rule="nonzero" fill-opacity="1" /><path clip-path="url(#clip190)" d="M1279.03 1479.7 L1283.92 1479.7 L1283.92 1485.58 L1279.03 1485.58 L1279.03 1479.7 Z" fill="#000000" fill-rule="nonzero" fill-opacity="1" /><path clip-path="url(#clip190)" d="M1304.1 1454.1 Q1300.49 1454.1 1298.66 1457.66 Q1296.86 1461.2 1296.86 1468.33 Q1296.86 1475.44 1298.66 1479.01 Q1300.49 1482.55 1304.1 1482.55 Q1307.73 1482.55 1309.54 1479.01 Q1311.37 1475.44 1311.37 1468.33 Q1311.37 1461.2 1309.54 1457.66 Q1307.73 1454.1 1304.1 1454.1 M1304.1 1450.39 Q1309.91 1450.39 1312.97 1455 Q1316.04 1459.58 1316.04 1468.33 Q1316.04 1477.06 1312.97 1481.67 Q1309.91 1486.25 1304.1 1486.25 Q1298.29 1486.25 1295.21 1481.67 Q1292.16 1477.06 1292.16 1468.33 Q1292.16 1459.58 1295.21 1455 Q1298.29 1450.39 1304.1 1450.39 Z" fill="#000000" fill-rule="nonzero" fill-opacity="1" /><path clip-path="url(#clip190)" d="M1753.26 1451.02 L1775.48 1451.02 L1775.48 1453.01 L1762.94 1485.58 L1758.05 1485.58 L1769.86 1454.96 L1753.26 1454.96 L1753.26 1451.02 Z" fill="#000000" fill-rule="nonzero" fill-opacity="1" /><path clip-path="url(#clip190)" d="M1784.6 1479.7 L1789.49 1479.7 L1789.49 1485.58 L1784.6 1485.58 L1784.6 1479.7 Z" fill="#000000" fill-rule="nonzero" fill-opacity="1" /><path clip-path="url(#clip190)" d="M1799.72 1451.02 L1818.08 1451.02 L1818.08 1454.96 L1804 1454.96 L1804 1463.43 Q1805.02 1463.08 1806.04 1462.92 Q1807.06 1462.73 1808.08 1462.73 Q1813.86 1462.73 1817.24 1465.9 Q1820.62 1469.08 1820.62 1474.49 Q1820.62 1480.07 1817.15 1483.17 Q1813.68 1486.25 1807.36 1486.25 Q1805.18 1486.25 1802.91 1485.88 Q1800.67 1485.51 1798.26 1484.77 L1798.26 1480.07 Q1800.34 1481.2 1802.57 1481.76 Q1804.79 1482.32 1807.27 1482.32 Q1811.27 1482.32 1813.61 1480.21 Q1815.95 1478.1 1815.95 1474.49 Q1815.95 1470.88 1813.61 1468.77 Q1811.27 1466.67 1807.27 1466.67 Q1805.39 1466.67 1803.52 1467.08 Q1801.66 1467.5 1799.72 1468.38 L1799.72 1451.02 Z" fill="#000000" fill-rule="nonzero" fill-opacity="1" /><path clip-path="url(#clip190)" d="M2244.2 1481.64 L2251.84 1481.64 L2251.84 1455.28 L2243.53 1456.95 L2243.53 1452.69 L2251.8 1451.02 L2256.47 1451.02 L2256.47 1481.64 L2264.11 1481.64 L2264.11 1485.58 L2244.2 1485.58 L2244.2 1481.64 Z" fill="#000000" fill-rule="nonzero" fill-opacity="1" /><path clip-path="url(#clip190)" d="M2283.56 1454.1 Q2279.95 1454.1 2278.12 1457.66 Q2276.31 1461.2 2276.31 1468.33 Q2276.31 1475.44 2278.12 1479.01 Q2279.95 1482.55 2283.56 1482.55 Q2287.19 1482.55 2289 1479.01 Q2290.83 1475.44 2290.83 1468.33 Q2290.83 1461.2 2289 1457.66 Q2287.19 1454.1 2283.56 1454.1 M2283.56 1450.39 Q2289.37 1450.39 2292.42 1455 Q2295.5 1459.58 2295.5 1468.33 Q2295.5 1477.06 2292.42 1481.67 Q2289.37 1486.25 2283.56 1486.25 Q2277.75 1486.25 2274.67 1481.67 Q2271.61 1477.06 2271.61 1468.33 Q2271.61 1459.58 2274.67 1455 Q2277.75 1450.39 2283.56 1450.39 Z" fill="#000000" fill-rule="nonzero" fill-opacity="1" /><path clip-path="url(#clip190)" d="M2303.72 1479.7 L2308.6 1479.7 L2308.6 1485.58 L2303.72 1485.58 L2303.72 1479.7 Z" fill="#000000" fill-rule="nonzero" fill-opacity="1" /><path clip-path="url(#clip190)" d="M2328.79 1454.1 Q2325.18 1454.1 2323.35 1457.66 Q2321.54 1461.2 2321.54 1468.33 Q2321.54 1475.44 2323.35 1479.01 Q2325.18 1482.55 2328.79 1482.55 Q2332.42 1482.55 2334.23 1479.01 Q2336.06 1475.44 2336.06 1468.33 Q2336.06 1461.2 2334.23 1457.66 Q2332.42 1454.1 2328.79 1454.1 M2328.79 1450.39 Q2334.6 1450.39 2337.65 1455 Q2340.73 1459.58 2340.73 1468.33 Q2340.73 1477.06 2337.65 1481.67 Q2334.6 1486.25 2328.79 1486.25 Q2322.98 1486.25 2319.9 1481.67 Q2316.84 1477.06 2316.84 1468.33 Q2316.84 1459.58 2319.9 1455 Q2322.98 1450.39 2328.79 1450.39 Z" fill="#000000" fill-rule="nonzero" fill-opacity="1" /><path clip-path="url(#clip190)" d="M1280.81 1522.27 L1280.81 1532.4 L1292.87 1532.4 L1292.87 1536.95 L1280.81 1536.95 L1280.81 1556.3 Q1280.81 1560.66 1281.99 1561.9 Q1283.2 1563.14 1286.86 1563.14 L1292.87 1563.14 L1292.87 1568.04 L1286.86 1568.04 Q1280.08 1568.04 1277.5 1565.53 Q1274.92 1562.98 1274.92 1556.3 L1274.92 1536.95 L1270.63 1536.95 L1270.63 1532.4 L1274.92 1532.4 L1274.92 1522.27 L1280.81 1522.27 Z" fill="#000000" fill-rule="nonzero" fill-opacity="1" /><polyline clip-path="url(#clip190)" style="stroke:#000000; stroke-linecap:round; stroke-linejoin:round; stroke-width:4; stroke-opacity:1; fill:none" points="210.746,1423.18 210.746,47.2441 "/>
<polyline clip-path="url(#clip190)" style="stroke:#000000; stroke-linecap:round; stroke-linejoin:round; stroke-width:4; stroke-opacity:1; fill:none" points="210.746,1206.99 229.644,1206.99 "/>
<polyline clip-path="url(#clip190)" style="stroke:#000000; stroke-linecap:round; stroke-linejoin:round; stroke-width:4; stroke-opacity:1; fill:none" points="210.746,985.653 229.644,985.653 "/>
<polyline clip-path="url(#clip190)" style="stroke:#000000; stroke-linecap:round; stroke-linejoin:round; stroke-width:4; stroke-opacity:1; fill:none" points="210.746,764.313 229.644,764.313 "/>
<polyline clip-path="url(#clip190)" style="stroke:#000000; stroke-linecap:round; stroke-linejoin:round; stroke-width:4; stroke-opacity:1; fill:none" points="210.746,542.973 229.644,542.973 "/>
<polyline clip-path="url(#clip190)" style="stroke:#000000; stroke-linecap:round; stroke-linejoin:round; stroke-width:4; stroke-opacity:1; fill:none" points="210.746,321.633 229.644,321.633 "/>
<polyline clip-path="url(#clip190)" style="stroke:#000000; stroke-linecap:round; stroke-linejoin:round; stroke-width:4; stroke-opacity:1; fill:none" points="210.746,100.293 229.644,100.293 "/>
<path clip-path="url(#clip190)" d="M114.26 1207.44 L143.936 1207.44 L143.936 1211.38 L114.26 1211.38 L114.26 1207.44 Z" fill="#000000" fill-rule="nonzero" fill-opacity="1" /><path clip-path="url(#clip190)" d="M154.839 1220.34 L162.477 1220.34 L162.477 1193.97 L154.167 1195.64 L154.167 1191.38 L162.431 1189.71 L167.107 1189.71 L167.107 1220.34 L174.746 1220.34 L174.746 1224.27 L154.839 1224.27 L154.839 1220.34 Z" fill="#000000" fill-rule="nonzero" fill-opacity="1" /><path clip-path="url(#clip190)" d="M162.802 971.451 Q159.19 971.451 157.362 975.016 Q155.556 978.558 155.556 985.688 Q155.556 992.794 157.362 996.359 Q159.19 999.9 162.802 999.9 Q166.436 999.9 168.241 996.359 Q170.07 992.794 170.07 985.688 Q170.07 978.558 168.241 975.016 Q166.436 971.451 162.802 971.451 M162.802 967.748 Q168.612 967.748 171.667 972.354 Q174.746 976.938 174.746 985.688 Q174.746 994.414 171.667 999.021 Q168.612 1003.6 162.802 1003.6 Q156.991 1003.6 153.913 999.021 Q150.857 994.414 150.857 985.688 Q150.857 976.938 153.913 972.354 Q156.991 967.748 162.802 967.748 Z" fill="#000000" fill-rule="nonzero" fill-opacity="1" /><path clip-path="url(#clip190)" d="M154.839 777.658 L162.477 777.658 L162.477 751.292 L154.167 752.959 L154.167 748.7 L162.431 747.033 L167.107 747.033 L167.107 777.658 L174.746 777.658 L174.746 781.593 L154.839 781.593 L154.839 777.658 Z" fill="#000000" fill-rule="nonzero" fill-opacity="1" /><path clip-path="url(#clip190)" d="M158.427 556.318 L174.746 556.318 L174.746 560.253 L152.802 560.253 L152.802 556.318 Q155.464 553.563 160.047 548.934 Q164.653 544.281 165.834 542.938 Q168.079 540.415 168.959 538.679 Q169.862 536.92 169.862 535.23 Q169.862 532.475 167.917 530.739 Q165.996 529.003 162.894 529.003 Q160.695 529.003 158.241 529.767 Q155.811 530.531 153.033 532.082 L153.033 527.36 Q155.857 526.225 158.311 525.647 Q160.765 525.068 162.802 525.068 Q168.172 525.068 171.366 527.753 Q174.561 530.438 174.561 534.929 Q174.561 537.059 173.751 538.98 Q172.964 540.878 170.857 543.471 Q170.278 544.142 167.177 547.359 Q164.075 550.554 158.427 556.318 Z" fill="#000000" fill-rule="nonzero" fill-opacity="1" /><path clip-path="url(#clip190)" d="M167.616 320.279 Q170.973 320.996 172.848 323.265 Q174.746 325.533 174.746 328.867 Q174.746 333.982 171.227 336.783 Q167.709 339.584 161.227 339.584 Q159.052 339.584 156.737 339.144 Q154.445 338.728 151.991 337.871 L151.991 333.357 Q153.936 334.492 156.251 335.07 Q158.565 335.649 161.089 335.649 Q165.487 335.649 167.778 333.913 Q170.093 332.177 170.093 328.867 Q170.093 325.811 167.94 324.098 Q165.811 322.362 161.991 322.362 L157.964 322.362 L157.964 318.52 L162.177 318.52 Q165.626 318.52 167.454 317.154 Q169.283 315.765 169.283 313.172 Q169.283 310.51 167.385 309.098 Q165.51 307.663 161.991 307.663 Q160.07 307.663 157.871 308.08 Q155.672 308.496 153.033 309.376 L153.033 305.209 Q155.695 304.469 158.01 304.098 Q160.348 303.728 162.408 303.728 Q167.732 303.728 170.834 306.159 Q173.936 308.566 173.936 312.686 Q173.936 315.557 172.292 317.547 Q170.649 319.515 167.616 320.279 Z" fill="#000000" fill-rule="nonzero" fill-opacity="1" /><path clip-path="url(#clip190)" d="M165.163 87.0871 L153.357 105.536 L165.163 105.536 L165.163 87.0871 M163.936 83.0131 L169.815 83.0131 L169.815 105.536 L174.746 105.536 L174.746 109.425 L169.815 109.425 L169.815 117.573 L165.163 117.573 L165.163 109.425 L149.561 109.425 L149.561 104.911 L163.936 83.0131 Z" fill="#000000" fill-rule="nonzero" fill-opacity="1" /><path clip-path="url(#clip190)" d="M20.8447 948.702 Q20.8447 955.704 26.0645 959.842 Q31.2844 963.948 40.2919 963.948 Q49.2675 963.948 54.4874 959.842 Q59.7073 955.704 59.7073 948.702 Q59.7073 941.7 54.4874 937.626 Q49.2675 933.52 40.2919 933.52 Q31.2844 933.52 26.0645 937.626 Q20.8447 941.7 20.8447 948.702 M15.6248 948.702 Q15.6248 938.708 22.3406 932.724 Q29.0246 926.74 40.2919 926.74 Q51.5274 926.74 58.2432 932.724 Q64.9272 938.708 64.9272 948.702 Q64.9272 958.728 58.2432 964.743 Q51.5592 970.727 40.2919 970.727 Q29.0246 970.727 22.3406 964.743 Q15.6248 958.728 15.6248 948.702 Z" fill="#000000" fill-rule="nonzero" fill-opacity="1" /><path clip-path="url(#clip190)" d="M49.9359 917.542 L28.3562 917.542 L28.3562 911.685 L49.7131 911.685 Q54.7739 911.685 57.3202 909.712 Q59.8346 907.739 59.8346 903.792 Q59.8346 899.049 56.8109 896.312 Q53.7872 893.543 48.5673 893.543 L28.3562 893.543 L28.3562 887.687 L64.0042 887.687 L64.0042 893.543 L58.5296 893.543 Q61.7762 895.676 63.3676 898.508 Q64.9272 901.309 64.9272 905.033 Q64.9272 911.176 61.1078 914.359 Q57.2883 917.542 49.9359 917.542 M27.4968 902.805 L27.4968 902.805 Z" fill="#000000" fill-rule="nonzero" fill-opacity="1" /><path clip-path="url(#clip190)" d="M18.2347 869.831 L28.3562 869.831 L28.3562 857.768 L32.9077 857.768 L32.9077 869.831 L52.2594 869.831 Q56.6199 869.831 57.8613 868.653 Q59.1026 867.444 59.1026 863.783 L59.1026 857.768 L64.0042 857.768 L64.0042 863.783 Q64.0042 870.563 61.4897 873.141 Q58.9434 875.719 52.2594 875.719 L32.9077 875.719 L32.9077 880.016 L28.3562 880.016 L28.3562 875.719 L18.2347 875.719 L18.2347 869.831 Z" fill="#000000" fill-rule="nonzero" fill-opacity="1" /><path clip-path="url(#clip190)" d="M58.657 844.4 L77.5631 844.4 L77.5631 850.288 L28.3562 850.288 L28.3562 844.4 L33.7671 844.4 Q30.5842 842.554 29.0564 839.753 Q27.4968 836.92 27.4968 833.005 Q27.4968 826.512 32.6531 822.47 Q37.8093 818.396 46.212 818.396 Q54.6147 818.396 59.771 822.47 Q64.9272 826.512 64.9272 833.005 Q64.9272 836.92 63.3994 839.753 Q61.8398 842.554 58.657 844.4 M46.212 824.475 Q39.7508 824.475 36.0905 827.149 Q32.3984 829.79 32.3984 834.437 Q32.3984 839.084 36.0905 841.758 Q39.7508 844.4 46.212 844.4 Q52.6732 844.4 56.3653 841.758 Q60.0256 839.084 60.0256 834.437 Q60.0256 829.79 56.3653 827.149 Q52.6732 824.475 46.212 824.475 Z" fill="#000000" fill-rule="nonzero" fill-opacity="1" /><path clip-path="url(#clip190)" d="M49.9359 809.293 L28.3562 809.293 L28.3562 803.436 L49.7131 803.436 Q54.7739 803.436 57.3202 801.463 Q59.8346 799.49 59.8346 795.543 Q59.8346 790.801 56.8109 788.063 Q53.7872 785.294 48.5673 785.294 L28.3562 785.294 L28.3562 779.438 L64.0042 779.438 L64.0042 785.294 L58.5296 785.294 Q61.7762 787.427 63.3676 790.259 Q64.9272 793.06 64.9272 796.784 Q64.9272 802.927 61.1078 806.11 Q57.2883 809.293 49.9359 809.293 M27.4968 794.556 L27.4968 794.556 Z" fill="#000000" fill-rule="nonzero" fill-opacity="1" /><path clip-path="url(#clip190)" d="M18.2347 761.582 L28.3562 761.582 L28.3562 749.519 L32.9077 749.519 L32.9077 761.582 L52.2594 761.582 Q56.6199 761.582 57.8613 760.404 Q59.1026 759.195 59.1026 755.534 L59.1026 749.519 L64.0042 749.519 L64.0042 755.534 Q64.0042 762.314 61.4897 764.892 Q58.9434 767.47 52.2594 767.47 L32.9077 767.47 L32.9077 771.767 L28.3562 771.767 L28.3562 767.47 L18.2347 767.47 L18.2347 761.582 Z" fill="#000000" fill-rule="nonzero" fill-opacity="1" /><path clip-path="url(#clip190)" d="M21.7677 735.132 L39.6235 735.132 L39.6235 727.048 Q39.6235 722.56 37.3 720.109 Q34.9765 717.659 30.6797 717.659 Q26.4147 717.659 24.0912 720.109 Q21.7677 722.56 21.7677 727.048 L21.7677 735.132 M16.4842 741.562 L16.4842 727.048 Q16.4842 719.059 20.1126 714.985 Q23.7092 710.879 30.6797 710.879 Q37.7138 710.879 41.3104 714.985 Q44.907 719.059 44.907 727.048 L44.907 735.132 L64.0042 735.132 L64.0042 741.562 L16.4842 741.562 Z" fill="#000000" fill-rule="nonzero" fill-opacity="1" /><path clip-path="url(#clip190)" d="M32.4621 691.018 Q32.4621 695.729 36.1542 698.466 Q39.8145 701.203 46.212 701.203 Q52.6095 701.203 56.3017 698.498 Q59.9619 695.761 59.9619 691.018 Q59.9619 686.339 56.2698 683.602 Q52.5777 680.865 46.212 680.865 Q39.8781 680.865 36.186 683.602 Q32.4621 686.339 32.4621 691.018 M27.4968 691.018 Q27.4968 683.379 32.4621 679.019 Q37.4273 674.658 46.212 674.658 Q54.9649 674.658 59.9619 679.019 Q64.9272 683.379 64.9272 691.018 Q64.9272 698.689 59.9619 703.049 Q54.9649 707.378 46.212 707.378 Q37.4273 707.378 32.4621 703.049 Q27.4968 698.689 27.4968 691.018 Z" fill="#000000" fill-rule="nonzero" fill-opacity="1" /><path clip-path="url(#clip190)" d="M29.4065 642.225 L34.9447 642.225 Q33.6716 644.708 33.035 647.381 Q32.3984 650.055 32.3984 652.919 Q32.3984 657.28 33.7352 659.476 Q35.072 661.64 37.7456 661.64 Q39.7826 661.64 40.9603 660.081 Q42.1061 658.521 43.1565 653.81 L43.6021 651.805 Q44.9389 645.567 47.3897 642.957 Q49.8086 640.315 54.1691 640.315 Q59.1344 640.315 62.0308 644.262 Q64.9272 648.177 64.9272 655.052 Q64.9272 657.916 64.3543 661.036 Q63.8132 664.123 62.6992 667.56 L56.6518 667.56 Q58.3387 664.314 59.198 661.163 Q60.0256 658.012 60.0256 654.924 Q60.0256 650.787 58.6251 648.559 Q57.1929 646.331 54.6147 646.331 Q52.2276 646.331 50.9545 647.954 Q49.6813 649.545 48.5037 654.988 L48.0262 657.025 Q46.8804 662.468 44.5251 664.887 Q42.138 667.306 38.0002 667.306 Q32.9713 667.306 30.2341 663.741 Q27.4968 660.176 27.4968 653.62 Q27.4968 650.373 27.9743 647.508 Q28.4517 644.644 29.4065 642.225 Z" fill="#000000" fill-rule="nonzero" fill-opacity="1" /><path clip-path="url(#clip190)" d="M28.3562 630.989 L28.3562 625.133 L64.0042 625.133 L64.0042 630.989 L28.3562 630.989 M14.479 630.989 L14.479 625.133 L21.895 625.133 L21.895 630.989 L14.479 630.989 Z" fill="#000000" fill-rule="nonzero" fill-opacity="1" /><path clip-path="url(#clip190)" d="M18.2347 607.086 L28.3562 607.086 L28.3562 595.023 L32.9077 595.023 L32.9077 607.086 L52.2594 607.086 Q56.6199 607.086 57.8613 605.909 Q59.1026 604.699 59.1026 601.039 L59.1026 595.023 L64.0042 595.023 L64.0042 601.039 Q64.0042 607.818 61.4897 610.396 Q58.9434 612.974 52.2594 612.974 L32.9077 612.974 L32.9077 617.271 L28.3562 617.271 L28.3562 612.974 L18.2347 612.974 L18.2347 607.086 Z" fill="#000000" fill-rule="nonzero" fill-opacity="1" /><path clip-path="url(#clip190)" d="M28.3562 587.321 L28.3562 581.464 L64.0042 581.464 L64.0042 587.321 L28.3562 587.321 M14.479 587.321 L14.479 581.464 L21.895 581.464 L21.895 587.321 L14.479 587.321 Z" fill="#000000" fill-rule="nonzero" fill-opacity="1" /><path clip-path="url(#clip190)" d="M32.4621 555.397 Q32.4621 560.107 36.1542 562.845 Q39.8145 565.582 46.212 565.582 Q52.6095 565.582 56.3017 562.876 Q59.9619 560.139 59.9619 555.397 Q59.9619 550.718 56.2698 547.981 Q52.5777 545.243 46.212 545.243 Q39.8781 545.243 36.186 547.981 Q32.4621 550.718 32.4621 555.397 M27.4968 555.397 Q27.4968 547.758 32.4621 543.397 Q37.4273 539.037 46.212 539.037 Q54.9649 539.037 59.9619 543.397 Q64.9272 547.758 64.9272 555.397 Q64.9272 563.067 59.9619 567.428 Q54.9649 571.757 46.212 571.757 Q37.4273 571.757 32.4621 567.428 Q27.4968 563.067 27.4968 555.397 Z" fill="#000000" fill-rule="nonzero" fill-opacity="1" /><path clip-path="url(#clip190)" d="M42.4881 499.697 L64.0042 499.697 L64.0042 505.553 L42.679 505.553 Q37.6183 505.553 35.1038 507.527 Q32.5894 509.5 32.5894 513.447 Q32.5894 518.189 35.6131 520.926 Q38.6368 523.664 43.8567 523.664 L64.0042 523.664 L64.0042 529.552 L28.3562 529.552 L28.3562 523.664 L33.8944 523.664 Q30.6797 521.563 29.0883 518.73 Q27.4968 515.866 27.4968 512.142 Q27.4968 505.999 31.3163 502.848 Q35.1038 499.697 42.4881 499.697 Z" fill="#000000" fill-rule="nonzero" fill-opacity="1" /><polyline clip-path="url(#clip192)" style="stroke:#009af9; stroke-linecap:round; stroke-linejoin:round; stroke-width:4; stroke-opacity:1; fill:none" points="271.369,1376.87 291.577,1371.39 311.784,1355.05 331.992,1328.18 352.199,1291.31 372.407,1245.19 392.615,1190.74 412.822,1129.04 433.03,1061.34 453.238,988.972 473.445,913.399 493.653,836.129 513.861,758.707 534.068,682.682 554.276,605.84 574.483,529.72 594.691,455.843 614.899,385.688 635.106,320.656 655.314,262.05 675.522,211.04 695.729,168.647 715.937,135.719 736.145,112.915 756.352,100.691 776.56,99.2901 796.768,108.742 816.975,128.856 837.183,159.232 857.39,199.261 877.598,248.142 897.806,304.899 918.013,368.395 938.221,437.362 958.429,510.419 978.636,586.106 998.844,662.908 1019.05,739.29 1039.26,817.457 1059.47,895.846 1079.67,972.888 1099.88,1047.04 1120.09,1116.83 1140.3,1180.85 1160.51,1237.82 1180.71,1286.6 1200.92,1326.23 1221.13,1355.9 1241.34,1375.02 1261.54,1383.22 1281.75,1380.32 1301.96,1366.38 1322.17,1341.69 1342.37,1306.73 1362.58,1262.21 1382.79,1209.02 1403,1148.21 1423.2,1081.02 1443.41,1008.77 1463.62,932.917 1483.83,854.977 1504.03,776.508 1524.24,699.08 1544.45,620.508 1564.66,542.363 1584.87,466.21 1605.07,393.57 1625.28,325.896 1645.49,264.543 1665.7,210.736 1685.9,165.553 1706.11,129.897 1726.32,104.48 1746.53,89.8121 1766.73,86.1857 1786.94,93.6734 1807.15,112.126 1827.36,141.173 1847.56,180.235 1867.77,228.531 1887.98,285.093 1908.19,348.792 1928.4,418.352 1948.6,492.384 1968.81,569.406 1989.02,647.877 2009.23,726.229 2029.43,802.895 2049.64,880.072 2069.85,956.22 2090.06,1029.81 2110.26,1099.38 2130.47,1163.53 2150.68,1220.98 2170.89,1270.58 2191.09,1311.34 2211.3,1342.45 2231.51,1363.27 2251.72,1373.4 2271.93,1372.64 2292.13,1360.99 "/>
<polyline clip-path="url(#clip192)" style="stroke:#e26f46; stroke-linecap:round; stroke-linejoin:round; stroke-width:4; stroke-opacity:1; fill:none" points="271.369,1082.81 291.577,1079.7 311.784,1070.43 331.992,1055.2 352.199,1034.3 372.407,1008.15 392.615,977.27 412.822,942.287 433.03,903.896 453.238,862.864 473.445,820.014 493.653,776.201 513.861,732.301 534.068,689.194 554.276,645.624 574.483,602.463 594.691,560.573 614.899,520.794 635.106,483.921 655.314,450.69 675.522,421.767 695.729,397.729 715.937,379.059 736.145,366.129 756.352,359.197 776.56,358.403 796.768,363.762 816.975,375.168 837.183,392.391 857.39,415.088 877.598,442.804 897.806,474.986 918.013,510.989 938.221,550.094 958.429,591.518 978.636,634.434 998.844,677.982 1019.05,721.292 1039.26,765.613 1059.47,810.061 1079.67,853.744 1099.88,895.791 1120.09,935.36 1140.3,971.659 1160.51,1003.96 1180.71,1031.63 1200.92,1054.09 1221.13,1070.92 1241.34,1081.76 1261.54,1086.41 1281.75,1084.76 1301.96,1076.86 1322.17,1062.86 1342.37,1043.04 1362.58,1017.79 1382.79,987.633 1403,953.157 1423.2,915.055 1443.41,874.09 1463.62,831.081 1483.83,786.888 1504.03,742.395 1524.24,698.492 1544.45,653.94 1564.66,609.631 1584.87,566.451 1605.07,525.263 1625.28,486.892 1645.49,452.103 1665.7,421.595 1685.9,395.975 1706.11,375.757 1726.32,361.346 1746.53,353.029 1766.73,350.973 1786.94,355.218 1807.15,365.681 1827.36,382.151 1847.56,404.3 1867.77,431.684 1887.98,463.756 1908.19,499.874 1928.4,539.316 1948.6,581.292 1968.81,624.965 1989.02,669.459 2009.23,713.886 2029.43,757.356 2049.64,801.117 2069.85,844.293 2090.06,886.022 2110.26,925.467 2130.47,961.842 2150.68,994.417 2170.89,1022.54 2191.09,1045.65 2211.3,1063.29 2231.51,1075.1 2251.72,1080.84 2271.93,1080.41 2292.13,1073.8 "/>
<polyline clip-path="url(#clip192)" style="stroke:#3da44d; stroke-linecap:round; stroke-linejoin:round; stroke-width:4; stroke-opacity:1; fill:none" points="271.369,1196.69 291.577,1195.09 311.784,1190.33 331.992,1182.49 352.199,1171.74 372.407,1158.3 392.615,1142.42 412.822,1124.43 433.03,1104.69 453.238,1083.59 473.445,1061.56 493.653,1039.03 513.861,1016.45 534.068,994.288 554.276,971.884 574.483,949.69 594.691,928.15 614.899,907.696 635.106,888.735 655.314,871.647 675.522,856.774 695.729,844.414 715.937,834.814 736.145,828.165 756.352,824.6 776.56,824.192 796.768,826.948 816.975,832.813 837.183,841.669 857.39,853.34 877.598,867.592 897.806,884.14 918.013,902.654 938.221,922.762 958.429,944.063 978.636,966.13 998.844,988.523 1019.05,1010.79 1039.26,1033.58 1059.47,1056.44 1079.67,1078.9 1099.88,1100.52 1120.09,1120.87 1140.3,1139.54 1160.51,1156.15 1180.71,1170.37 1200.92,1181.92 1221.13,1190.58 1241.34,1196.15 1261.54,1198.54 1281.75,1197.69 1301.96,1193.63 1322.17,1186.43 1342.37,1176.24 1362.58,1163.26 1382.79,1147.75 1403,1130.02 1423.2,1110.43 1443.41,1089.36 1463.62,1067.25 1483.83,1044.52 1504.03,1021.65 1524.24,999.07 1544.45,976.161 1564.66,953.377 1584.87,931.173 1605.07,909.994 1625.28,890.262 1645.49,872.374 1665.7,856.686 1685.9,843.512 1706.11,833.116 1726.32,825.705 1746.53,821.429 1766.73,820.371 1786.94,822.554 1807.15,827.935 1827.36,836.404 1847.56,847.793 1867.77,861.874 1887.98,878.366 1908.19,896.938 1928.4,917.219 1948.6,938.804 1968.81,961.261 1989.02,984.141 2009.23,1006.99 2029.43,1029.34 2049.64,1051.84 2069.85,1074.04 2090.06,1095.5 2110.26,1115.78 2130.47,1134.49 2150.68,1151.24 2170.89,1165.7 2191.09,1177.58 2211.3,1186.65 2231.51,1192.72 2251.72,1195.68 2271.93,1195.46 2292.13,1192.06 "/>
<polyline clip-path="url(#clip192)" style="stroke:#c271d2; stroke-linecap:round; stroke-linejoin:round; stroke-width:4; stroke-opacity:1; fill:none" points="271.369,93.5516 291.577,99.035 311.784,115.376 331.992,142.247 352.199,179.111 372.407,225.23 392.615,279.684 412.822,341.381 433.03,409.088 453.238,481.452 473.445,557.025 493.653,634.295 513.861,711.717 534.068,787.742 554.276,864.584 574.483,940.704 594.691,1014.58 614.899,1084.74 635.106,1149.77 655.314,1208.37 675.522,1259.38 695.729,1301.78 715.937,1334.7 736.145,1357.51 756.352,1369.73 776.56,1371.13 796.768,1361.68 816.975,1341.57 837.183,1311.19 857.39,1271.16 877.598,1222.28 897.806,1165.53 918.013,1102.03 938.221,1033.06 958.429,960.005 978.636,884.318 998.844,807.516 1019.05,731.134 1039.26,652.967 1059.47,574.578 1079.67,497.536 1099.88,423.381 1120.09,353.597 1140.3,289.578 1160.51,232.606 1180.71,183.819 1200.92,144.194 1221.13,114.523 1241.34,95.3999 1261.54,87.2064 1281.75,90.1066 1301.96,104.043 1322.17,128.736 1342.37,163.692 1362.58,208.212 1382.79,261.406 1403,322.21 1423.2,389.408 1443.41,461.655 1463.62,537.507 1483.83,615.447 1504.03,693.916 1524.24,771.344 1544.45,849.916 1564.66,928.06 1584.87,1004.21 1605.07,1076.85 1625.28,1144.53 1645.49,1205.88 1665.7,1259.69 1685.9,1304.87 1706.11,1340.53 1726.32,1365.94 1746.53,1380.61 1766.73,1384.24 1786.94,1376.75 1807.15,1358.3 1827.36,1329.25 1847.56,1290.19 1867.77,1241.89 1887.98,1185.33 1908.19,1121.63 1928.4,1052.07 1948.6,978.04 1968.81,901.018 1989.02,822.547 2009.23,744.195 2029.43,667.529 2049.64,590.351 2069.85,514.204 2090.06,440.611 2110.26,371.044 2130.47,306.893 2150.68,249.443 2170.89,199.841 2191.09,159.081 2211.3,127.977 2231.51,107.151 2251.72,97.0205 2271.93,97.7872 2292.13,109.436 "/>
<polyline clip-path="url(#clip192)" style="stroke:#ac8d18; stroke-linecap:round; stroke-linejoin:round; stroke-width:4; stroke-opacity:1; fill:none" points="271.369,355.149 291.577,358.258 311.784,367.524 331.992,382.76 352.199,403.662 372.407,429.813 392.615,460.688 412.822,495.672 433.03,534.063 453.238,575.094 473.445,617.945 493.653,661.758 513.861,705.657 534.068,748.765 554.276,792.335 574.483,835.496 594.691,877.385 614.899,917.164 635.106,954.038 655.314,987.268 675.522,1016.19 695.729,1040.23 715.937,1058.9 736.145,1071.83 756.352,1078.76 776.56,1079.56 796.768,1074.2 816.975,1062.79 837.183,1045.57 857.39,1022.87 877.598,995.154 897.806,962.972 918.013,926.969 938.221,887.864 958.429,846.44 978.636,803.524 998.844,759.976 1019.05,716.667 1039.26,672.345 1059.47,627.898 1079.67,584.214 1099.88,542.167 1120.09,502.598 1140.3,466.299 1160.51,433.995 1180.71,406.332 1200.92,383.864 1221.13,367.041 1241.34,356.197 1261.54,351.551 1281.75,353.196 1301.96,361.098 1322.17,375.099 1342.37,394.92 1362.58,420.163 1382.79,450.325 1403,484.802 1423.2,522.903 1443.41,563.869 1463.62,606.878 1483.83,651.071 1504.03,695.564 1524.24,739.466 1544.45,784.018 1564.66,828.327 1584.87,871.507 1605.07,912.695 1625.28,951.067 1645.49,985.855 1665.7,1016.36 1685.9,1041.98 1706.11,1062.2 1726.32,1076.61 1746.53,1084.93 1766.73,1086.99 1786.94,1082.74 1807.15,1072.28 1827.36,1055.81 1847.56,1033.66 1867.77,1006.27 1887.98,974.202 1908.19,938.085 1928.4,898.643 1948.6,856.666 1968.81,812.993 1989.02,768.499 2009.23,724.072 2029.43,680.602 2049.64,636.841 2069.85,593.665 2090.06,551.937 2110.26,512.491 2130.47,476.117 2150.68,443.542 2170.89,415.417 2191.09,392.305 2211.3,374.669 2231.51,362.86 2251.72,357.116 2271.93,357.551 2292.13,364.156 "/>
<polyline clip-path="url(#clip192)" style="stroke:#00a9ad; stroke-linecap:round; stroke-linejoin:round; stroke-width:4; stroke-opacity:1; fill:none" points="271.369,822.519 291.577,824.118 311.784,828.882 331.992,836.717 352.199,847.465 372.407,860.912 392.615,876.788 412.822,894.777 433.03,914.518 453.238,935.617 473.445,957.651 493.653,980.181 513.861,1002.75 534.068,1024.92 554.276,1047.32 574.483,1069.52 594.691,1091.06 614.899,1111.51 635.106,1130.47 655.314,1147.56 675.522,1162.43 695.729,1174.79 715.937,1184.4 736.145,1191.04 756.352,1194.61 776.56,1195.02 796.768,1192.26 816.975,1186.4 837.183,1177.54 857.39,1165.87 877.598,1151.62 897.806,1135.07 918.013,1116.56 938.221,1096.45 958.429,1075.15 978.636,1053.08 998.844,1030.69 1019.05,1008.42 1039.26,985.625 1059.47,962.769 1079.67,940.307 1099.88,918.686 1120.09,898.339 1140.3,879.673 1160.51,863.062 1180.71,848.838 1200.92,837.285 1221.13,828.634 1241.34,823.058 1261.54,820.669 1281.75,821.515 1301.96,825.578 1322.17,832.777 1342.37,842.969 1362.58,855.95 1382.79,871.459 1403,889.188 1423.2,908.78 1443.41,929.845 1463.62,951.961 1483.83,974.685 1504.03,997.564 1524.24,1020.14 1544.45,1043.05 1564.66,1065.83 1584.87,1088.04 1605.07,1109.22 1625.28,1128.95 1645.49,1146.84 1665.7,1162.52 1685.9,1175.7 1706.11,1186.09 1726.32,1193.5 1746.53,1197.78 1766.73,1198.84 1786.94,1196.65 1807.15,1191.27 1827.36,1182.81 1847.56,1171.42 1867.77,1157.33 1887.98,1140.84 1908.19,1122.27 1928.4,1101.99 1948.6,1080.4 1968.81,1057.95 1989.02,1035.07 2009.23,1012.22 2029.43,989.871 2049.64,967.368 2069.85,945.166 2090.06,923.709 2110.26,903.426 2130.47,884.722 2150.68,867.971 2170.89,853.509 2191.09,841.625 2211.3,832.556 2231.51,826.484 2251.72,823.53 2271.93,823.754 2292.13,827.15 "/>
</svg>
